<?xml version="1.0" standalone="no"?>
<!DOCTYPE svg PUBLIC "-//W3C//DTD SVG 1.1//EN" "http://www.w3.org/Graphics/SVG/1.1/DTD/svg11.dtd" >
<svg xmlns="http://www.w3.org/2000/svg" xmlns:xlink="http://www.w3.org/1999/xlink" version="1.1">
<metadata></metadata>
<defs>
<font id="oxfam_tstar_promedium_italic" horiz-adv-x="1112" >
<font-face units-per-em="2048" ascent="1585" descent="-463" />
<missing-glyph horiz-adv-x="512" />
<glyph horiz-adv-x="0" />
<glyph horiz-adv-x="682" />
<glyph unicode=" "  horiz-adv-x="512" />
<glyph unicode="&#x09;" horiz-adv-x="512" />
<glyph unicode="&#xa0;" horiz-adv-x="512" />
<glyph unicode="!" horiz-adv-x="536" d="M78 0l39 209h209l-39 -209h-209zM174 371l211 1089h158l-211 -1089h-158z" />
<glyph unicode="&#x22;" horiz-adv-x="720" d="M307 1128l78 402h143l-77 -402h-144zM551 1128l78 402h143l-78 -402h-143z" />
<glyph unicode="#" horiz-adv-x="1366" d="M172 465l27 137h209l96 270h-189l27 134h207l141 389h144l-138 -389h267l143 389h141l-141 -389h209l-27 -134h-227l-96 -270h209l-27 -137h-229l-152 -424h-141l147 424h-266l-156 -424h-141l151 424h-188zM551 602h268l96 270h-266z" />
<glyph unicode="$" horiz-adv-x="1071" d="M90 367h158q-22 -109 35.5 -171.5t177.5 -62.5q130 0 225 69t115 175q32 153 -96 229q-59 36 -174.5 104.5t-135.5 80.5q-78 47 -116.5 134t-18.5 189q29 145 135.5 242t261.5 117l25 120h152l-25 -125q144 -25 218.5 -128.5t47.5 -249.5h-157q24 115 -31.5 174 t-169.5 59q-70 0 -133 -25.5t-109 -76.5t-59 -119q-25 -128 90 -193q157 -86 295 -168q99 -58 139.5 -157.5t17.5 -221.5q-31 -153 -150.5 -256t-287.5 -122l-24 -123h-152l25 125q-154 25 -230.5 130t-48.5 251z" />
<glyph unicode="%" horiz-adv-x="1697" d="M274 987l41 209q23 122 108 194t206 72q126 0 189 -71.5t40 -194.5l-41 -209q-23 -121 -108 -192.5t-207 -71.5q-125 0 -188.5 72t-39.5 192zM403 -106l871 1660h141l-864 -1660h-148zM418 945.5q0 -17.5 7 -37t29 -30t58 -10.5q61 0 104.5 31.5t53.5 87.5l41 209 q6 21 4 43t-9.5 39t-30.5 28t-59 11q-60 0 -101.5 -32t-51.5 -89l-41 -209q-4 -24 -4 -41.5zM961 262l40 209q25 122 109 194t205 72q126 0 189.5 -71.5t39.5 -194.5l-41 -209q-23 -121 -108 -192.5t-207 -71.5q-124 0 -187 72t-40 192zM1103.5 221q1.5 -21 8.5 -38.5 t29.5 -28.5t58.5 -11q61 0 103.5 31.5t52.5 87.5l41 209q6 21 5 43t-8 39t-30 28t-59 11q-60 0 -102 -32t-54 -89l-41 -209q-6 -20 -4.5 -41z" />
<glyph unicode="&#x26;" horiz-adv-x="1331" d="M132.5 249q-16.5 71 2.5 163q25 119 100.5 213.5t194.5 156.5l33 17q-80 77 -108.5 157t-8.5 177q18 91 66 159.5t112 106.5t129 56t129 18q177 0 281 -109.5t70 -284.5h-158q21 114 -33 177t-166 63q-96 0 -176 -52t-100 -153q-13 -65 3.5 -112.5t59.5 -90.5l574 -577 l-109 -117l-59 62q-30 -81 -84 -141t-119.5 -92.5t-131.5 -48t-134 -15.5q-57 0 -113.5 15t-110.5 47.5t-90.5 83t-53 121.5zM295 269.5q14 -53.5 49.5 -81.5t77 -40.5t90.5 -12.5q56 0 106.5 12.5t98.5 40.5t82.5 81.5t48.5 127.5v2l-279 287q-34 -11 -84 -39 q-156 -88 -190 -250q-14 -74 0 -127.5z" />
<glyph unicode="'" horiz-adv-x="483" d="M307 1128l78 402h143l-77 -402h-144z" />
<glyph unicode="(" horiz-adv-x="608" d="M115 176l209 1075q22 117 75 189q30 43 68.5 77.5t110.5 90.5l84 -119l-44 -37q-42 -36 -65 -60.5t-47 -69t-35 -99.5l-199 -1035q-10 -51 -12 -84t7 -60t20 -44t37 -47l30 -37l-116 -102q-79 91 -100 126q-14 24 -21 46q-24 75 -2 190z" />
<glyph unicode=")" horiz-adv-x="608" d="M61 -63q78 63 127 120q44 52 60 142l201 1040q19 108 10 143q-4 17 -12.5 33.5t-15.5 25.5t-25 29.5t-27 32.5l113 103q88 -101 110 -166q25 -80 4 -189l-211 -1075q-21 -115 -76 -190q-31 -42 -69 -77t-107 -91z" />
<glyph unicode="*" horiz-adv-x="1183" d="M375 969l221 110l-178 109l76 112l182 -122l39 231h133l-53 -231l209 112l55 -110l-221 -113l180 -111l-80 -114l-182 129l-37 -230h-133l47 228l-209 -113z" />
<glyph unicode="+" horiz-adv-x="1157" d="M168 506l27 145h352l67 340h148l-68 -340h353l-27 -145h-352l-72 -365h-147l71 365h-352z" />
<glyph unicode="," horiz-adv-x="620" d="M-66 -217l259 434h200l-291 -434h-168z" />
<glyph unicode="-" horiz-adv-x="935" d="M180 506l27 145h608l-27 -145h-608z" />
<glyph unicode="." horiz-adv-x="542" d="M74 0l43 231h231l-43 -231h-231z" />
<glyph unicode="/" horiz-adv-x="1024" d="M57 -106l869 1660h153l-864 -1660h-158z" />
<glyph unicode="0" horiz-adv-x="1067" d="M124 301q0 39 7 74l139 712q9 44 25.5 88.5t52 100.5t83.5 97.5t125.5 70.5t170.5 29q78 0 138.5 -19.5t96 -53t59 -73.5t31.5 -85t8 -83.5t-7 -73.5l-140 -712q-9 -45 -25.5 -91t-53 -102t-84.5 -98t-126 -71t-171 -29q-78 0 -138 20t-95.5 53.5t-58.5 74t-30 86.5 t-7 85zM282.5 287q0.5 -38 15.5 -65t32.5 -44t43 -26.5t48 -13t47.5 -3.5q30 0 59.5 5t66.5 21t67 41t56 70.5t38 104.5l137 702q14 61 5.5 103.5t-24 69.5t-44.5 41.5t-55.5 20t-57.5 5.5q-38 0 -76.5 -9.5t-84.5 -33t-81 -74.5t-49 -123l-137 -702q-7 -52 -6.5 -90z" />
<glyph unicode="1" horiz-adv-x="1075" d="M80 0l29 156h294l224 1142l-219 -16l28 150l379 30l-254 -1306h305l-28 -156h-758z" />
<glyph unicode="2" horiz-adv-x="1067" d="M37 0l51 268q20 105 85.5 183.5t170.5 150.5q53 35 212.5 124t223.5 134q116 81 140 207q23 120 -29 186t-174 66q-115 0 -205.5 -68.5t-114.5 -187.5h-157q36 181 169.5 295.5t315.5 114.5q185 0 285 -116t65 -296q-36 -179 -209 -309q-68 -51 -231 -140.5t-229 -136.5 q-71 -50 -109.5 -97.5t-52.5 -119.5l-21 -102h670l-29 -156h-827z" />
<glyph unicode="3" horiz-adv-x="1067" d="M109 323q1 38 8 74h157q-8 -55 -6.5 -95.5t18 -69.5t36 -48t47 -30t51 -15t47.5 -4q41 0 83.5 10t91 34.5t86.5 76.5t52 125l21 104q10 43 5.5 76.5t-13.5 58t-28 42t-38 28t-43.5 17t-44 8.5t-39.5 2h-96l26 131l373 457h-549l31 155h731l-31 -155l-372 -451 q56 -10 100 -32t72 -52t46.5 -64.5t25.5 -73t7.5 -74t-6.5 -69.5l-20 -108q-7 -36 -22 -76t-40.5 -86.5t-64 -87.5t-87 -75t-116.5 -54t-145 -20q-68 0 -124 14.5t-94 39.5t-65.5 58.5t-42.5 71t-22 78.5t-6 79z" />
<glyph unicode="4" horiz-adv-x="1067" d="M131 410l33 159l502 891h168l-502 -895h469l104 541h158l-213 -1106h-158l78 410h-639z" />
<glyph unicode="5" horiz-adv-x="1062" d="M102 399h158q-23 -122 31.5 -193t175.5 -71q117 0 206 66.5t113 185.5l19 94q22 112 -28 184t-175 72h-375l31 156l154 565h667l-30 -155h-523l-108 -410h198q82 0 153.5 -29.5t121 -81.5t70.5 -129.5t4 -167.5l-21 -100q-37 -182 -167 -292.5t-318 -110.5 q-115 0 -204.5 50.5t-133 147t-19.5 219.5z" />
<glyph unicode="6" horiz-adv-x="1067" d="M103.5 303.5q2.5 33.5 5.5 61.5l141 720q9 45 26.5 90.5t55 101t88.5 97.5t132.5 70.5t180.5 28.5q76 0 135 -20t93.5 -55t57.5 -76.5t30 -89.5t7 -89t-7 -80h-158q14 62 8 107t-19 73.5t-40 45.5t-56 23.5t-65 6.5q-41 0 -83 -9.5t-91 -33t-87 -74.5t-52 -123l-48 -239 q125 88 263 88q67 0 122 -14.5t92.5 -38.5t65 -56.5t42.5 -68t22 -74.5t6.5 -73t-6.5 -66l-33 -168q-9 -45 -25 -89t-53 -100.5t-86.5 -98t-131 -70.5t-181.5 -29q-66 0 -121 14.5t-91.5 39t-65.5 57t-43 68.5t-23.5 72.5t-7 70zM262 286.5q2 -37.5 19 -64t37 -43.5t49 -27 t54.5 -13.5t53.5 -3.5q29 0 60 5t70.5 20.5t72 40.5t60 70t38.5 104l31 160q10 44 6.5 78.5t-11.5 60t-26 43.5t-36.5 29.5t-43 18t-46.5 9t-46 2.5q-23 0 -48.5 -3.5t-58 -12.5t-62.5 -27t-57.5 -43.5t-48.5 -65t-30 -89.5l-31 -160q-8 -51 -6 -88.5z" />
<glyph unicode="7" horiz-adv-x="1062" d="M227 0l742 1305h-699l31 155h862l-28 -149l-742 -1311h-166z" />
<glyph unicode="8" horiz-adv-x="1062" d="M92.5 328.5q-0.5 44.5 7.5 85.5q8 42 26 87t47.5 94.5t77 94.5t105.5 76q-67 56 -96 143.5t-12 173.5q10 51 29 100.5t57 104t89.5 94.5t131.5 66.5t176 26.5q67 0 121.5 -14.5t91 -39.5t63.5 -59t41.5 -71t21 -77.5t5.5 -77t-8 -71.5q-16 -86 -81 -176t-167 -146 q90 -59 121 -158t14 -188q-10 -52 -29 -103t-58.5 -109.5t-93 -101.5t-138 -72t-186.5 -29q-82 0 -146 21t-102.5 57t-64 80t-34.5 94t-9.5 94.5zM251.5 306.5q1.5 -42.5 19.5 -72t38.5 -48.5t51 -30t57 -15t55.5 -4q30 0 62 5.5t75 23t78 45.5t65.5 78.5t43.5 116.5 q25 127 -32 196.5t-185 69.5q-117 0 -207.5 -71.5t-114.5 -194.5q-8 -57 -6.5 -99.5zM401 1073q-23 -118 29.5 -183t177.5 -65q115 0 198.5 67t106.5 181q8 52 6.5 91t-18 66.5t-36 45t-48 27.5t-53.5 14t-53 4t-59.5 -5.5t-72 -22t-75 -42.5t-63 -72.5t-40.5 -105.5z" />
<glyph unicode="9" horiz-adv-x="1067" d="M126.5 324.5q0.5 34.5 6.5 66.5h156q-46 -256 192 -256q32 0 62.5 5t69 21t69 41t56.5 70.5t38 104.5l47 239q-68 -47 -125 -68.5t-141 -21.5q-67 0 -122 15t-91.5 40.5t-64 59t-41.5 70t-21 75t-6.5 72t6.5 62.5l33 167q9 45 25 89t53 100.5t86.5 98.5t130.5 71t180 29 q67 0 122 -14.5t92 -39t66 -57t43 -68.5t23.5 -72.5t7 -70t-5.5 -61.5l-139 -719q-7 -37 -20 -74t-35.5 -84t-59.5 -86.5t-85 -73.5t-118.5 -53.5t-154.5 -19.5q-65 0 -118.5 15.5t-89 41t-61.5 60.5t-39.5 72.5t-20 78t-6 75zM375 922q-46 -242 203 -242q29 0 60.5 5 t71.5 21t73 41t61 70.5t39 104.5l30 159q7 51 6 89t-17.5 64.5t-35 43.5t-46.5 26.5t-53 13t-54 3.5q-38 0 -78.5 -9.5t-89.5 -33t-87 -74.5t-52 -123z" />
<glyph unicode=":" horiz-adv-x="542" d="M74 0l43 231h231l-43 -231h-231zM199 643l45 231h231l-45 -231h-231z" />
<glyph unicode=";" horiz-adv-x="548" d="M-139 -217l256 434h200l-290 -434h-166zM184 643l45 231h232l-45 -231h-232z" />
<glyph unicode="&#x3c;" horiz-adv-x="1075" d="M186 539l637 536h221l-651 -547l426 -528h-196z" />
<glyph unicode="=" horiz-adv-x="1218" d="M229 381l27 145h743l-26 -145h-744zM285 670l28 145h744l-29 -145h-743z" />
<glyph unicode="&#x3e;" horiz-adv-x="1081" d="M57 0l670 561l-412 516h193l432 -536l-647 -541h-236z" />
<glyph unicode="?" horiz-adv-x="925" d="M176 1069q9 47 28 96.5t57.5 106.5t89.5 100t130.5 72t173.5 29q182 0 278 -116t64 -292q-25 -134 -135 -229q-39 -36 -136.5 -103t-137.5 -104q-63 -54 -82 -164l-19 -92h-157l18 94q31 159 144 260q41 37 132.5 98.5t133.5 100.5q69 62 86 143q22 120 -28 184t-175 64 q-30 0 -59.5 -4.5t-69 -20t-72 -41t-62 -73t-44.5 -109.5h-158zM233 0l41 211h211l-41 -211h-211z" />
<glyph unicode="@" horiz-adv-x="1255" d="M116 -130.5q-3 42.5 7 77.5l223 1143q8 42 27 88t58 101t90 97t130.5 70.5t173.5 28.5q67 0 121.5 -15t91.5 -39.5t64.5 -58t42 -69.5t21.5 -74t7 -70.5t-6 -61.5l-204 -1048h-154l8 45q-64 -45 -137 -45q-61 0 -110.5 16.5t-85.5 51.5t-48.5 88.5t0.5 128.5l76 385 q18 91 68.5 154.5t117.5 92.5t144 29q37 0 78.5 -13.5t62.5 -39.5l29 151q7 51 4.5 89t-20 65t-38 44t-48 27t-50.5 13.5t-47 3.5q-38 0 -80 -10t-92 -34.5t-89.5 -76.5t-53.5 -125l-219 -1126q-14 -60 -3 -103t32 -71.5t56 -45.5t70 -23.5t74 -6.5l-27 -149 q-84 0 -149.5 20t-104 52t-66 73t-35 84.5t-10.5 86zM582 326q-13 -72 14 -107t84 -35q64 0 117 35t67 105l76 383q12 68 -22.5 100.5t-92.5 32.5q-61 0 -108.5 -35t-61.5 -105z" />
<glyph unicode="A" horiz-adv-x="1126" d="M-31 0l664 1460h256l104 -1460h-149l-27 412h-493l-191 -412h-164zM389 565h416l-49 750h-27z" />
<glyph unicode="B" horiz-adv-x="1132" d="M82 0l283 1460h423q94 0 161.5 -28t100.5 -70q34 -40 50 -94q15 -52 14 -97q0 -46 -10 -90l-6 -26q-11 -45 -23 -78t-36.5 -78.5t-66.5 -84.5t-100 -69q48 -19 80 -60t42 -85q10 -42 14 -88q1 -14 2 -27q0 -28 -6 -49l-9 -49q-7 -43 -24 -89.5t-53.5 -101t-86 -97 t-127.5 -71t-172 -28.5h-450zM268 156h273q30 0 60.5 4.5t69.5 19.5t70.5 39.5t58.5 69t38 102.5l8 43q7 51 7 89t-14 65t-30.5 44t-41.5 27t-48 13.5t-49 3.5h-299zM399 829h275q216 0 268 232l4 18q8 33 8 60v17q-4 33 -9.5 57t-22 41t-32 27t-38.5 15t-41.5 7t-40.5 2 h-278z" />
<glyph unicode="C" horiz-adv-x="1077" d="M127 312.5q0 33.5 6 62.5l139 712q8 42 27 88.5t58 101.5t90 97.5t131 71.5t174 29q66 0 121 -15t91.5 -40t65.5 -58.5t43 -69.5q13 -36 23 -74q8 -30 8 -57v-15q-2 -34 -6 -61h-158q5 38 5 68q-1 11 -1 20q-2 37 -19.5 63.5t-37.5 43t-48 25.5t-50.5 12.5t-45.5 3.5 q-31 0 -64 -5.5t-75 -22t-76 -42t-62.5 -71t-39.5 -103.5l-135 -702q-7 -30 -7 -56q0 -13 2 -23q4 -34 12.5 -59t27.5 -43t38 -29.5t43.5 -18t45 -9t41.5 -2.5q29 0 60 4.5t71.5 20.5t73.5 40.5t61.5 69.5t40.5 103h157q-8 -43 -27.5 -90.5t-58.5 -102.5t-90.5 -98 t-131 -71.5t-173.5 -28.5q-67 0 -122 15t-92 40t-64.5 59t-42.5 70t-22 74.5t-7 72z" />
<glyph unicode="D" horiz-adv-x="1132" d="M82 0l283 1460h423q79 0 140.5 -19.5t97 -53t59 -73.5t31 -85.5t7.5 -83.5t-7 -72l-135 -692q-9 -44 -25.5 -89t-52 -99.5t-82.5 -95.5t-123 -69t-168 -28h-448zM268 156h271q39 0 77 9t82.5 32t78.5 73.5t48 122.5l131 674q9 35 9 63q0 8 -1 16q-3 34 -9.5 59t-23 42.5 t-33 29t-39.5 17.5t-42 8.5t-41 2.5h-282z" />
<glyph unicode="E" horiz-adv-x="1054" d="M82 0l283 1460h788l-31 -155h-630l-89 -455h584l-31 -156h-583l-105 -538h631l-29 -156h-788z" />
<glyph unicode="F" horiz-adv-x="1034" d="M82 0l283 1460h788l-31 -155h-630l-89 -457h584l-31 -156h-583l-133 -692h-158z" />
<glyph unicode="G" d="M127 312.5q0 33.5 6 62.5l139 712q8 42 27 88.5t58 101.5t90 97.5t131 71.5t174 29q66 0 121 -14.5t92 -38.5t65 -57t43.5 -68.5t23 -73.5t7.5 -72.5t-6 -65.5h-158q5 37 5 67q0 10 -1 20q-2 37 -19.5 63.5t-37.5 43t-48 26t-50.5 13t-45.5 3.5q-38 0 -80 -10t-92 -34 t-89.5 -75.5t-53.5 -122.5l-137 -704q-7 -33 -7 -60v-19q4 -34 12 -59t26.5 -43t37 -29.5t42.5 -18t44 -9t41 -2.5q38 0 79.5 9t91.5 32.5t89.5 74.5t53.5 124l53 274h-301l31 156h458l-84 -432q-8 -43 -28 -90.5t-59.5 -102.5t-91.5 -98t-131.5 -71.5t-172.5 -28.5 q-67 0 -121.5 15t-91.5 40t-64.5 59t-42 70t-21.5 74.5t-7 72z" />
<glyph unicode="H" horiz-adv-x="1181" d="M82 0l283 1460h157l-119 -616h539l119 616h158l-283 -1460h-158l133 688h-538l-133 -688h-158z" />
<glyph unicode="I" horiz-adv-x="485" d="M82 0l283 1460h157l-282 -1460h-158z" />
<glyph unicode="J" horiz-adv-x="937" d="M29 367h157q-9 -43 -9 -79q0 -153 169 -153q40 0 77.5 9.5t77 32.5t70 69.5t43.5 111.5l183 947h-430l30 155h588l-211 -1095q-35 -184 -149 -283.5t-291 -99.5q-173 0 -256 106q-58 77 -58 186q0 44 9 93z" />
<glyph unicode="K" horiz-adv-x="1073" d="M82 0l283 1460h157l-135 -694l627 694h194l-594 -663l322 -797h-176l-260 672l-166 -187l-94 -485h-158z" />
<glyph unicode="L" horiz-adv-x="980" d="M82 0l283 1460h157l-254 -1304h629l-29 -156h-786z" />
<glyph unicode="M" horiz-adv-x="1361" d="M82 0l283 1460h184l172 -788l473 788h205l-283 -1460h-158l226 1165l-432 -716h-134l-153 716l-225 -1165h-158z" />
<glyph unicode="N" horiz-adv-x="1163" d="M82 0l283 1460h176l276 -1163l225 1163h158l-282 -1460h-181l-276 1151l-221 -1151h-158z" />
<glyph unicode="O" d="M133 375l139 712q7 36 21.5 74.5t39.5 84t63 85t87 72.5t117.5 52.5t147.5 19.5q66 0 121 -14.5t92 -39.5t66.5 -57.5t44 -69t24.5 -74.5q8 -31 7 -59v-13q-2 -34 -5 -63l-140 -712q-9 -46 -28 -93t-57.5 -102.5t-89.5 -97.5t-129.5 -70t-172.5 -28q-67 0 -122 15 t-92.5 39.5t-66 58t-43.5 69.5t-23 74q-8 36 -8 69q0 35 7 68zM285 296q4 -34 13 -59t28.5 -43t38.5 -29.5t43.5 -18t44 -9t39.5 -2.5q29 0 60 5t72 20.5t74.5 40.5t62 70t40.5 104l137 708q7 31 7 58q0 11 -1 20q-4 34 -13 59t-28 43t-38 29t-43.5 17.5t-43.5 9t-39 2.5 q-38 0 -79.5 -9.5t-91.5 -33t-88 -74.5t-52 -123l-137 -706q-7 -31 -8 -58q1 -11 2 -21z" />
<glyph unicode="P" horiz-adv-x="1081" d="M82 0l283 1460h423q79 0 140 -19.5t97 -53t59 -73.5t30 -85.5t7 -83.5t-7 -72l-20 -106q-9 -45 -25 -91t-51.5 -102.5t-82.5 -98.5t-122.5 -71t-167.5 -29h-295l-110 -575h-158zM381 731h266q30 0 59.5 4.5t67 20t67.5 40t56.5 69.5t38.5 104l20 100q8 52 8 89.5 t-15.5 63.5t-33 42.5t-44 25.5t-49 12t-48.5 3h-282z" />
<glyph unicode="Q" d="M133 375l139 712q7 36 21.5 74.5t39.5 84t63 85t87 72.5t117.5 52.5t147.5 19.5q66 0 121 -14.5t92 -39.5t66.5 -57.5t44 -69t24.5 -74.5q7 -30 7 -59v-13q-2 -34 -5 -63l-140 -712q-8 -42 -25.5 -86.5t-51 -96.5t-78 -93t-113 -72t-149.5 -39l-41 -203h-146l41 205 q-70 12 -124 44.5t-82 74t-45 90.5q-17 46 -17 89q0 42 6 89zM291 375q-8 -37 -8 -69q0 -59 28 -95q42 -55 115 -70l53 279h146l-54 -277q37 8 69.5 23.5t66 41.5t58.5 69t36 98l137 708q7 31 7 58q0 10 -1 20q-4 34 -13 59t-28 43t-38 29t-43.5 17.5t-43.5 9t-39 2.5 q-38 0 -79.5 -9.5t-91.5 -33t-88 -74.5t-52 -123z" />
<glyph unicode="R" horiz-adv-x="1132" d="M82 0l283 1460h419q79 0 140.5 -19.5t98.5 -53t61 -73t32 -84.5t8 -83v-5q0 -35 -6 -67l-14 -69q-8 -40 -20 -77t-38 -85.5t-60.5 -87t-91 -73.5t-126.5 -52l176 -631h-164l-166 616h-256l-118 -616h-158zM389 772h275q39 0 76 9t80.5 31.5t77.5 73t48 122.5l12 61 q8 33 8 61v17q-4 34 -11.5 59t-25 42.5t-35 28.5t-41 17.5t-42 8.5t-39.5 2h-280z" />
<glyph unicode="S" horiz-adv-x="1071" d="M90 367h158q-6 -30 -6 -57q0 -70 42 -114q58 -62 177 -63q130 0 225 69t115 175q6 31 6 58q0 110 -102 171q-59 36 -174.5 104.5t-135.5 80.5q-79 47 -117 134q-25 57 -25 121q0 33 7 68q33 163 160 263t307 100q181 0 281 -110q75 -83 75 -199q0 -37 -8 -78h-157 q7 35 7 64q-1 68 -39 110q-56 59 -169 59q-70 0 -133 -25.5t-109 -76.5t-59 -119q-4 -23 -5 -44q0 -96 95 -149q157 -86 295 -168q99 -57 139 -157q26 -63 26 -137q0 -41 -8 -85q-34 -169 -174 -275.5t-333 -106.5q-191 0 -291 112q-77 85 -77 201q0 35 7 74z" />
<glyph unicode="T" horiz-adv-x="976" d="M223 1305l31 155h870l-30 -155h-357l-252 -1305h-157l252 1305h-357z" />
<glyph unicode="U" horiz-adv-x="1114" d="M133 375l211 1085h158l-211 -1085q-7 -31 -8 -58q0 -11 2 -21q4 -34 13.5 -59t28.5 -43t38.5 -29.5t43.5 -18t43.5 -9t39.5 -2.5q30 0 61 5t72.5 20.5t75 40.5t62 70t40.5 104l211 1085h157l-210 -1087q-9 -46 -28 -93.5t-57.5 -102.5t-89 -97t-130 -70t-173.5 -28 q-69 0 -125.5 14.5t-94 39t-65.5 58t-43 69.5q-15 37 -22 75q-7 36 -7 67q0 36 7 70z" />
<glyph unicode="V" horiz-adv-x="1091" d="M254 1460h152l69 -1310h31l571 1310h162l-645 -1460h-256z" />
<glyph unicode="W" horiz-adv-x="1626" d="M256 1460h160l4 -1218l522 1218h139l45 -1220l480 1220h166l-588 -1460h-189l-39 1141l-491 -1141h-189z" />
<glyph unicode="X" horiz-adv-x="1038" d="M-33 0l518 739l-237 721h166l184 -571l397 571h183l-519 -739l236 -721h-168l-178 569l-393 -569h-189z" />
<glyph unicode="Y" horiz-adv-x="1032" d="M254 1460h158l155 -737l432 737h181l-566 -934l-102 -526h-158l103 530z" />
<glyph unicode="Z" horiz-adv-x="937" d="M-18 0l26 143l834 1162h-580l29 155h753l-26 -137l-834 -1167h639l-28 -156h-813z" />
<glyph unicode="[" horiz-adv-x="647" d="M49 -166l336 1729h320l-29 -144h-174l-281 -1442h174l-26 -143h-320z" />
<glyph unicode="\" horiz-adv-x="1030" d="M385 1548h141l219 -1659h-137z" />
<glyph unicode="]" horiz-adv-x="647" d="M49 -166l27 143h174l280 1442h-174l29 144h320l-336 -1729h-320z" />
<glyph unicode="^" horiz-adv-x="1038" d="M248 920l395 540h135l180 -540h-149l-123 358l-260 -358h-178z" />
<glyph unicode="_" horiz-adv-x="1067" d="M-152 -322l27 134h1081l-26 -134h-1082z" />
<glyph unicode="`" horiz-adv-x="671" d="M369 1548h168l98 -323h-137z" />
<glyph unicode="a" horiz-adv-x="1069" d="M100 340q28 145 137.5 221t264.5 76h297l20 102q7 35 7 64q0 63 -32 95q-48 46 -155 46q-96 0 -169.5 -49t-98.5 -152h-154q16 74 51 134.5t78.5 100t95.5 66.5t103 38.5t102 11.5q58 0 109.5 -11.5t99 -37t76.5 -65.5q30 -42 44 -100q6 -27 6 -57q0 -36 -9 -78 l-144 -745h-153l18 102q-45 -53 -127 -86.5t-172 -33.5q-68 0 -127 22t-103.5 64t-62.5 112q-10 37 -10 79q0 38 8 81zM250 332q-6 -30 -6 -56q0 -145 186 -145q104 0 199 65.5t116 170.5l25 125h-276q-95 0 -161.5 -39t-82.5 -121z" />
<glyph unicode="b" horiz-adv-x="1095" d="M82 0l283 1460h153l-92 -473q44 47 119 77t145 30q178 0 266 -104q62 -74 62 -187q0 -45 -10 -96l-68 -338q-36 -179 -156 -284t-297 -105q-69 0 -141 30.5t-96 73.5l-14 -84h-154zM305 369q-7 -39 -7 -71q0 -169 196 -169q112 0 191 65t101 175l68 338q7 37 7 69 q0 168 -193 168q-116 0 -194.5 -62.5t-100.5 -174.5z" />
<glyph unicode="c" horiz-adv-x="1050" d="M131 369l68 338q34 178 159.5 282.5t309.5 104.5q175 0 267 -101q74 -81 74 -208q0 -32 -5 -66h-154q3 23 3 44q0 181 -198 181q-117 0 -199.5 -63t-103.5 -174l-67 -338q-5 -31 -7 -65v-12q0 -28 10 -54q12 -32 32.5 -55.5t62 -38.5t98.5 -15q108 0 186 59t109 164h156 q-48 -171 -171.5 -271.5t-291.5 -100.5q-185 0 -278 106q-69 78 -69 195q0 41 9 88z" />
<glyph unicode="d" horiz-adv-x="1099" d="M131 369l68 338q34 180 156.5 283.5t303.5 103.5q74 0 138.5 -28.5t91.5 -78.5l92 473h154l-283 -1460h-154l15 84q-38 -45 -110.5 -74.5t-141.5 -29.5q-180 0 -272 106q-67 78 -67 193q0 43 9 90zM285 369q-7 -35 -7 -65q0 -67 34 -111q48 -64 161 -64q71 0 126.5 22 t89 59t52.5 76t27 83l68 338q7 35 7 65q0 67 -34 110q-49 62 -162 62q-70 0 -125.5 -21t-89 -57t-53 -75.5t-27.5 -83.5z" />
<glyph unicode="e" horiz-adv-x="1081" d="M131 369l68 338q34 177 160.5 282t306.5 105q184 0 278 -104q69 -77 68 -195q0 -41 -8 -88l-43 -218h-652l-24 -120q-5 -31 -7 -65v-12q0 -28 10 -54q12 -32 32.5 -55.5t62 -38.5t98.5 -15q106 0 187 60t108 163h156q-48 -172 -170.5 -272t-290.5 -100q-185 0 -279 106 q-70 78 -70 195q0 42 9 88zM338 639h498l14 68q4 33 6 67v9q0 29 -10 55q-12 30 -32 54t-61 38t-98 14q-117 0 -199.5 -63t-103.5 -174z" />
<glyph unicode="f" horiz-adv-x="679" d="M139 926l31 149h186l17 90q27 145 106.5 220t222.5 75h113l-29 -149h-98q-135 0 -160 -137l-18 -99h254l-31 -149h-254l-178 -926h-154l179 926h-187z" />
<glyph unicode="g" horiz-adv-x="1097" d="M51 -147h154q-1 -79 47 -122.5t137 -43.5q38 0 69 4t68.5 18t65 37.5t51.5 66.5t35 101l33 170q-40 -48 -109 -76t-139 -28q-184 0 -275 105q-66 76 -66 192q0 43 9 92l68 338q34 177 158.5 282t304.5 105q70 0 138 -28.5t89 -72.5l16 86h154l-228 -1165 q-73 -377 -450 -377q-153 0 -247 85q-84 77 -84 203q0 14 1 28zM285 369q-7 -39 -7 -71q0 -169 197 -169q112 0 190.5 65t100.5 175l68 338q7 37 8 67t-8 63t-29 55.5t-59.5 37t-96.5 14.5q-115 0 -195 -63t-102 -174z" />
<glyph unicode="h" horiz-adv-x="1110" d="M82 0l283 1460h153l-94 -485q49 55 126.5 87t149.5 32q184 0 264 -102q57 -72 56 -183q0 -47 -10 -102l-138 -707h-153l137 707q6 32 8.5 55t1.5 53t-12 51t-29.5 40t-53.5 28.5t-83 9.5q-110 0 -202.5 -66t-112.5 -167l-137 -711h-154z" />
<glyph unicode="i" horiz-adv-x="516" d="M100 0l209 1079h154l-209 -1079h-154zM326 1255l43 222h188l-43 -222h-188z" />
<glyph unicode="j" horiz-adv-x="497" d="M-170 -463l29 150h41q122 0 143 120l248 1272h153l-245 -1261q-28 -143 -108.5 -212t-192.5 -69h-68zM309 1255l43 222h187l-43 -222h-187z" />
<glyph unicode="k" horiz-adv-x="1046" d="M84 0l283 1460h153l-176 -901l576 518h215l-525 -465l285 -612h-172l-227 508l-193 -172l-65 -336h-154z" />
<glyph unicode="l" horiz-adv-x="516" d="M127 279l229 1181h154l-231 -1190q-5 -26 -5 -45q0 -33 12 -49q20 -26 76 -26h58l-29 -150h-51q-115 0 -178 70q-44 48 -44 130q0 36 9 79z" />
<glyph unicode="m" horiz-adv-x="1538" d="M82 0l209 1079h153l-16 -86q101 101 244 101q82 0 137 -36t78 -97q127 133 311 133q63 0 113 -19t79 -50.5t47.5 -72.5t19.5 -84v-12q0 -37 -5 -74l-152 -782h-153l147 768q6 33 6 60q0 116 -118 116q-115 0 -186.5 -68t-96.5 -192l-131 -684h-154l148 762q4 30 4 57 q0 17 -2 31q-4 40 -32.5 67t-78.5 27q-234 0 -286 -262l-131 -682h-154z" />
<glyph unicode="n" horiz-adv-x="1110" d="M82 0l209 1079h153l-20 -102q49 55 125.5 86t150.5 31q182 0 263 -102q57 -72 57 -184q0 -47 -10 -101l-138 -707h-153l137 707q6 32 8.5 55t1.5 53t-12 51t-29.5 40t-53.5 28.5t-83 9.5q-110 0 -202.5 -66t-112.5 -167l-137 -711h-154z" />
<glyph unicode="o" horiz-adv-x="1091" d="M131 369l68 338q34 177 160.5 282t306.5 105q184 0 278 -104q69 -77 69 -195q0 -41 -9 -88l-68 -338q-34 -177 -160.5 -283t-304.5 -106q-185 0 -279 106q-70 78 -70 195q0 42 9 88zM285 369q-7 -38 -8 -70q0 -170 204 -170q111 0 195.5 65.5t105.5 174.5l68 338 q7 36 7 67q0 170 -202 170q-113 0 -197.5 -63.5t-105.5 -173.5z" />
<glyph unicode="p" horiz-adv-x="1097" d="M-8 -463l299 1542h153l-16 -84q113 99 252 99q181 0 272 -106q67 -76 67 -191q0 -42 -9 -90l-68 -338q-36 -184 -151 -286.5t-299 -102.5q-71 0 -144.5 30t-97.5 74l-105 -547h-153zM305 369q-7 -35 -7 -65q0 -67 34 -111q49 -64 162 -64q71 0 126.5 22t88.5 59t52 76 t27 83l68 338q7 37 7 68q0 66 -31 107q-47 62 -164 62q-71 0 -126.5 -21t-89 -57t-52.5 -75t-27 -84z" />
<glyph unicode="q" horiz-adv-x="1097" d="M131 369l68 338q34 179 154.5 283t299.5 104q68 0 140 -30t96 -73l16 88h154l-299 -1542h-154l103 541q-41 -43 -111.5 -70.5t-138.5 -27.5q-184 0 -273 105q-65 75 -65 189q0 45 10 95zM279 304v-10q0 -28 10 -56q12 -31 32.5 -55t62.5 -39t99 -15q111 0 186 64.5 t97 175.5l68 338q7 37 8 67t-8 63t-29 55.5t-59.5 37t-96.5 14.5q-115 0 -194.5 -62.5t-102.5 -174.5l-67 -338q-4 -32 -6 -65z" />
<glyph unicode="r" horiz-adv-x="659" d="M82 0l209 1079h153l-18 -98q82 98 211 98h86l-31 -151h-71q-75 0 -152.5 -60.5t-101.5 -179.5l-131 -688h-154z" />
<glyph unicode="s" horiz-adv-x="1007" d="M88 352h154q-7 -34 -7 -63q0 -63 31 -99q45 -54 168 -53q261 0 295 178q3 16 3 30q0 33 -16 55q-24 32 -83 49q-86 26 -250 67q-101 26 -155 106q-39 59 -40 129q0 25 5 52q28 150 140 219.5t279 69.5q174 0 270 -93q76 -73 75 -190q0 -32 -5 -66h-155q2 21 2 40 q-1 71 -33 109q-42 48 -166 48q-228 0 -258 -156q-2 -13 -2 -25q0 -76 92 -100q20 -5 78 -20t104.5 -28t83.5 -25q106 -34 154 -106q34 -50 33 -117q0 -29 -6 -60q-63 -319 -457 -319q-178 0 -272 99q-71 74 -70 188q0 38 8 81z" />
<glyph unicode="t" horiz-adv-x="735" d="M141 930l29 149h205l74 381h153l-74 -381h236l-29 -149h-235l-129 -660q-4 -25 -5 -44q0 -32 13 -49q20 -27 74 -27h135l-29 -150h-127q-55 0 -99 15.5t-76 49.5q-31 35 -41 87q-4 22 -5 48q0 36 8 79l127 651h-205z" />
<glyph unicode="u" horiz-adv-x="1116" d="M143 369l140 710h153l-139 -710q-7 -38 -7 -70q0 -168 197 -168q109 0 193.5 63t105.5 164l140 721h153l-209 -1079h-153l16 86q-45 -47 -116.5 -75.5t-141.5 -28.5q-184 0 -275 104q-66 76 -66 192q0 43 9 91z" />
<glyph unicode="v" horiz-adv-x="933" d="M170 1079h154l75 -932h13l438 932h168l-512 -1079h-242z" />
<glyph unicode="w" horiz-adv-x="1425" d="M217 1079h156l24 -843l369 843h147l43 -854l353 854h164l-461 -1079h-183l-38 797l-351 -797h-178z" />
<glyph unicode="x" horiz-adv-x="954" d="M-29 0l449 545l-242 534h170l174 -415l334 415h186l-450 -544l246 -535h-172l-174 408l-332 -408h-189z" />
<glyph unicode="y" horiz-adv-x="921" d="M-41 -463l31 150h94q68 0 105 23.5t67 90.5l92 199h-86l-92 1079h158l71 -932h15l426 932h166l-592 -1284q-38 -84 -75 -135t-84 -78.5t-96 -36t-126 -8.5h-74z" />
<glyph unicode="z" horiz-adv-x="919" d="M2 0l27 139l678 791h-506l28 149h691l-27 -139l-680 -790h569l-28 -150h-752z" />
<glyph unicode="{" horiz-adv-x="643" d="M102 106l236 1215q25 129 89.5 186.5t195.5 57.5h77l-26 -142h-56q-76 0 -100.5 -25t-38.5 -100l-229 -1177q-17 -72 -3.5 -95.5t87.5 -23.5h63l-28 -141h-54q-134 0 -186 59t-27 186z" />
<glyph unicode="|" horiz-adv-x="473" d="M59 -113l324 1665h145l-323 -1665h-146z" />
<glyph unicode="}" horiz-adv-x="651" d="M53 -141l29 141h68q66 0 92 22t41 95l229 1186q14 76 -1 97t-75 21h-80l29 142h64q135 0 186.5 -58.5t26.5 -185.5l-236 -1215q-26 -132 -88.5 -188.5t-198.5 -56.5h-86z" />
<glyph unicode="~" horiz-adv-x="1118" d="M184 543q96 82 146 105.5t112 23.5q56 0 150 -47t139 -47q34 0 69.5 17t94.5 67l88 -95q-98 -81 -147 -103t-113 -22q-55 0 -150.5 46.5t-138.5 46.5q-34 0 -71 -18.5t-97 -70.5z" />
<glyph unicode="&#xa1;" horiz-adv-x="536" d="M39 -350l213 1089h158l-213 -1089h-158zM256 901l41 209h209l-41 -209h-209z" />
<glyph unicode="&#xa2;" horiz-adv-x="1050" d="M131 369l68 338q31 162 138.5 264t266.5 119l55 280h146l-55 -283q137 -24 205.5 -121t48.5 -247h-154q25 225 -195 225q-117 0 -199.5 -63t-103.5 -174l-67 -338q-4 -32 -6.5 -65.5t9.5 -65t32.5 -55.5t62 -39t98.5 -15q108 0 186 59t109 164h156q-43 -154 -148 -251.5 t-249 -116.5l-54 -279h-145l53 281q-148 22 -218 123.5t-40 259.5z" />
<glyph unicode="&#xa3;" horiz-adv-x="1062" d="M98 0l135 700h-75l30 156h76l43 227q36 176 154.5 280.5t294.5 104.5q172 0 264.5 -109.5t64.5 -281.5h-155q8 43 4 77t-11.5 59t-24 43t-33.5 29.5t-39.5 18t-42 9t-40.5 2.5q-42 0 -82 -10.5t-81 -35t-72 -72.5t-43 -114l-43 -227h436l-31 -156h-436l-106 -544h618 l-29 -156h-776z" />
<glyph unicode="&#xa5;" horiz-adv-x="1087" d="M143 215l29 145h279l28 148h-278l28 145h228l-176 807h157l156 -737l432 737h180l-489 -807h231l-28 -145h-283l-29 -148h283l-29 -145h-282l-41 -215h-158l41 215h-279z" />
<glyph unicode="&#xa6;" horiz-adv-x="471" d="M66 -55l127 651h155l-127 -651h-155zM242 844l125 649h155l-125 -649h-155z" />
<glyph unicode="&#xa7;" horiz-adv-x="1140" d="M145 328h154q-19 -93 32.5 -142t162.5 -49q262 0 299 182q10 52 -14 87.5t-72 46.5q-58 15 -167.5 39.5t-129.5 29.5q-88 19 -134.5 97t-25.5 180q11 57 37 95t71 81q-44 75 -26 172q21 107 85.5 176.5t149 97t189.5 27.5q179 0 274 -91.5t64 -252.5h-154 q19 91 -30.5 140.5t-170.5 49.5q-44 0 -83.5 -7t-78.5 -23.5t-66 -49.5t-36 -79q-8 -43 13 -76t69 -45q277 -63 287 -66q98 -25 149 -102t31 -182q-25 -118 -104 -191q39 -68 20 -166q-18 -89 -61 -153.5t-106 -100.5t-134 -52.5t-156 -16.5q-178 0 -274 92.5t-64 251.5z M393 782q-19 -101 92 -125l281 -65q38 -11 61 -23q38 41 50 107q9 52 -16 86t-73 45q-27 6 -105 22.5t-136 30.5t-96 29q-47 -47 -58 -107z" />
<glyph unicode="&#xa8;" horiz-adv-x="935" d="M322 1255l43 224h188l-43 -224h-188zM750 1255l43 224h188l-43 -224h-188z" />
<glyph unicode="&#xa9;" horiz-adv-x="1775" d="M238 713q0 196 96 363t262 264.5t362 97.5t362 -97.5t262.5 -264.5t96.5 -363t-96.5 -363t-262.5 -264.5t-362 -97.5t-362 97.5t-262 264.5t-96 363zM383 713q0 -159 75.5 -292.5t207.5 -211.5t290 -78t291.5 78t210 211.5t76.5 292.5t-77 292.5t-210 211t-291 77.5 t-290 -77.5t-207.5 -211t-75.5 -292.5zM709 522v381q0 26 5 53t21 60.5t41 58.5t68.5 42.5t99.5 17.5q69 0 119 -25.5t73.5 -65t33.5 -75t10 -68.5h-136q0 56 -31 77t-69 21t-69 -21.5t-31 -78.5v-375q0 -57 31.5 -80.5t68.5 -23.5t68.5 23t31.5 79h136q0 -34 -10 -70 t-34 -76t-74.5 -65.5t-121.5 -25.5q-56 0 -99 17.5t-67 43.5t-39.5 60t-20.5 62t-5 54z" />
<glyph unicode="&#xaa;" horiz-adv-x="856" d="M254 944q21 100 97.5 149.5t185.5 49.5h168l10 49q21 111 -101 111q-62 0 -101.5 -25t-53.5 -94h-135q14 69 46 120t75 78.5t87 40.5t91 13q50 0 94 -13.5t79 -41t50 -76.5t2 -113l-94 -487h-136l11 53q-29 -30 -74.5 -48t-87.5 -18q-111 0 -174.5 67.5t-38.5 184.5z M387 932q-20 -107 98 -107q60 0 116 35.5t67 93.5l12 64h-150q-52 0 -93.5 -21.5t-49.5 -64.5z" />
<glyph unicode="&#xab;" horiz-adv-x="1009" d="M84 541l489 409l-43 -215l-247 -207l168 -206l-37 -189zM481 541l490 409l-43 -215l-248 -207l168 -206l-37 -189z" />
<glyph unicode="&#xac;" horiz-adv-x="1155" d="M205 680l28 151h844l-94 -487h-156l66 336h-688z" />
<glyph unicode="&#xad;" horiz-adv-x="1196" d="M180 506l27 145h868l-26 -145h-869z" />
<glyph unicode="&#xae;" horiz-adv-x="1775" d="M238 713q0 196 96 363t262 264.5t362 97.5t362 -97.5t262.5 -264.5t96.5 -363t-96.5 -363t-262.5 -264.5t-362 -97.5t-362 97.5t-262 264.5t-96 363zM383 713q0 -159 75.5 -292.5t207.5 -211.5t290 -78t291.5 78t210 211.5t76.5 292.5t-77 292.5t-210 211t-291 77.5 t-290 -77.5t-207.5 -211t-75.5 -292.5zM733 291v825h256q56 0 99.5 -17t68 -42.5t40.5 -58.5t21 -60t5 -53v-47q0 -27 -6.5 -56.5t-22.5 -64.5t-50.5 -63t-82.5 -40l164 -323h-152l-151 315h-56v-315h-133zM866 737h125q38 0 68.5 22t30.5 79v43q0 57 -31.5 79.5t-69.5 22.5 h-123v-246z" />
<glyph unicode="&#xaf;" horiz-adv-x="952" d="M332 1282l28 141h625l-29 -141h-624z" />
<glyph unicode="&#xb0;" horiz-adv-x="700" d="M250 1208q0 104 74 178t178 74t178 -74t74 -178t-74 -178t-178 -74t-178 74t-74 178zM362 1206q0 -57 41.5 -98t98.5 -41t98 41t41 98t-41 98.5t-98 41.5t-98.5 -41.5t-41.5 -98.5z" />
<glyph unicode="&#xb1;" horiz-adv-x="1161" d="M74 0l26 145h850l-26 -145h-850zM172 506l27 145h352l63 320h148l-64 -320h351l-27 -145h-350l-58 -285h-147l57 285h-352z" />
<glyph unicode="&#xb2;" horiz-adv-x="768" d="M209 705l31 163q19 108 137 183q13 9 86.5 46.5t119.5 72.5t52 71q7 38 -8.5 64t-59.5 26t-78.5 -32.5t-46.5 -90.5h-137q24 116 95.5 187t172.5 71q102 0 160 -65t39 -160q-17 -95 -115 -168q-49 -35 -112 -63q-70 -36 -115 -71t-53 -77l-4 -20h317l-26 -137h-455z" />
<glyph unicode="&#xb3;" horiz-adv-x="761" d="M254.5 888.5q0.5 34.5 3.5 65.5h135q-24 -123 66 -123t108 84l11 48q6 25 -0.5 42.5t-21 25t-27.5 10.5t-27 3h-72l19 99l153 180h-242l27 135h408l-23 -115l-160 -186q49 -13 75.5 -46t28.5 -70.5t-3 -75.5l-11 -50q-5 -26 -14 -52t-28.5 -57.5t-45.5 -55.5t-67.5 -40 t-91.5 -16q-52 0 -92 17.5t-61 45.5t-34.5 62.5t-13 69z" />
<glyph unicode="&#xb4;" horiz-adv-x="669" d="M319 1225l220 323h180l-254 -323h-146z" />
<glyph unicode="&#xb5;" horiz-adv-x="1122" d="M-8 -463l299 1540h153l-139 -708q-7 -35 -7 -66t9.5 -63.5t30 -55.5t61 -38t97.5 -15q109 0 192.5 62t104.5 165l139 719h153l-208 -1077h-154l14 84q-45 -47 -114.5 -74.5t-139.5 -27.5q-69 0 -140 26t-95 62l-103 -533h-153z" />
<glyph unicode="&#xb6;" horiz-adv-x="1060" d="M138.5 1006.5q-14.5 62.5 0.5 128.5q34 170 141.5 243.5t290.5 73.5h484l-281 -1452h-153l251 1300h-196l-252 -1300h-154l152 782q-79 2 -140.5 33t-95 80t-48 111.5z" />
<glyph unicode="&#xb7;" horiz-adv-x="544" d="M166 436l43 219h217l-43 -219h-217z" />
<glyph unicode="&#xb8;" horiz-adv-x="626" d="M-18 -412l254 324h147l-223 -324h-178z" />
<glyph unicode="&#xb9;" horiz-adv-x="731" d="M209 705l27 135h141l94 481l-106 -10l26 133l242 22l-123 -626h145l-26 -135h-420z" />
<glyph unicode="&#xba;" horiz-adv-x="860" d="M258 954l41 215q25 122 109.5 193.5t205.5 71.5q124 0 189 -72.5t41 -192.5l-41 -215q-25 -125 -107.5 -195.5t-206.5 -70.5q-127 0 -191 71.5t-40 194.5zM389.5 907.5q1.5 -23.5 9 -43t32.5 -31.5t65 -12q77 0 118 39t52 94l41 215q25 131 -101 131q-66 0 -112 -34.5 t-58 -96.5l-41 -215q-7 -23 -5.5 -46.5z" />
<glyph unicode="&#xbb;" horiz-adv-x="1007" d="M88 135l41 215l246 207l-166 205l37 190l325 -409zM485 135l41 215l246 207l-166 205l37 190l326 -409z" />
<glyph unicode="&#xbc;" horiz-adv-x="1476" d="M209 705l27 135h141l94 481l-106 -10l26 133l244 22l-123 -626h143l-26 -135h-420zM301 -106l868 1660h144l-867 -1660h-145zM831 195l21 108l256 453h145l-237 -426h153l50 258h135l-113 -588h-135l37 195h-312z" />
<glyph unicode="&#xbd;" horiz-adv-x="1540" d="M209 705l27 135h139l94 481l-104 -8l26 131l242 22l-123 -626h145l-26 -135h-420zM299 -106l868 1660h144l-865 -1660h-147zM846 0l31 164q19 107 137 182q13 8 86.5 46.5t119.5 73.5t52 71q7 38 -8.5 64t-59.5 26t-78.5 -32.5t-46.5 -90.5h-137q24 116 95.5 187 t172.5 71q102 0 160 -65t39 -160q-17 -95 -115 -168q-53 -38 -112 -64q-33 -17 -56 -30.5t-49.5 -32.5t-42.5 -40.5t-20 -43.5l-4 -21h317l-27 -137h-454z" />
<glyph unicode="&#xbe;" horiz-adv-x="1497" d="M254.5 888.5q0.5 34.5 3.5 65.5h135q-24 -123 66 -123t108 84l11 48q6 25 -0.5 42.5t-21 25t-27.5 10.5t-27 3h-72l19 99l153 180h-242l27 135h408l-23 -115l-160 -186q49 -13 75.5 -46t28.5 -70.5t-3 -75.5l-11 -50q-5 -26 -14 -52t-28.5 -57.5t-45.5 -55.5t-67.5 -40 t-91.5 -16q-52 0 -92 17.5t-61 45.5t-34.5 62.5t-13 69zM319 -106l871 1660h141l-864 -1660h-148zM848 195l20 108l256 453h146l-238 -426h154l49 258h135l-113 -588h-135l37 195h-311z" />
<glyph unicode="&#xbf;" horiz-adv-x="884" d="M-25 25q24 133 136 229q39 36 136.5 103t137.5 104q63 54 82 164l18 92h158l-18 -94q-31 -160 -144 -261q-41 -37 -132.5 -98t-133.5 -100q-69 -62 -86 -144q-22 -119 28 -183t175 -64q30 0 59.5 4.5t69 20t72 41t62 72.5t44.5 109h158q-9 -47 -28 -96.5t-58 -106 t-90 -99.5t-130.5 -72t-173.5 -29q-182 0 -278 116t-64 292zM487 879l41 211h211l-41 -211h-211z" />
<glyph unicode="&#xc0;" horiz-adv-x="1126" d="M-31 0l664 1460h256l104 -1460h-149l-27 412h-493l-191 -412h-164zM389 565h416l-49 750h-27zM627 1921h168l98 -324h-137z" />
<glyph unicode="&#xc1;" horiz-adv-x="1126" d="M-31 0l664 1460h256l104 -1460h-149l-27 412h-493l-191 -412h-164zM389 565h416l-49 750h-27zM682 1597l219 324h180l-254 -324h-145z" />
<glyph unicode="&#xc2;" horiz-adv-x="1126" d="M-31 0l664 1460h256l104 -1460h-149l-27 412h-493l-191 -412h-164zM389 565h416l-49 750h-27zM506 1597l280 322h129l158 -322h-137l-105 183l-172 -183h-153z" />
<glyph unicode="&#xc3;" horiz-adv-x="1126" d="M-31 0l664 1460h256l104 -1460h-149l-27 412h-493l-191 -412h-164zM389 565h416l-49 750h-27zM473 1714q86 70 134 91.5t91 21.5q48 0 126 -44t108 -44q48 0 135 71l80 -104q-85 -68 -132.5 -88.5t-90.5 -20.5q-39 0 -82.5 22.5t-83 44.5t-68.5 22q-45 0 -137 -72z" />
<glyph unicode="&#xc4;" horiz-adv-x="1126" d="M-31 0l664 1460h256l104 -1460h-149l-27 412h-493l-191 -412h-164zM389 565h416l-49 750h-27zM481 1597l43 224h189l-43 -224h-189zM909 1597l43 224h189l-43 -224h-189z" />
<glyph unicode="&#xc5;" horiz-adv-x="1126" d="M-31 0l664 1460h256l104 -1460h-149l-27 412h-493l-191 -412h-164zM389 565h416l-49 750h-27zM600 1749q18 92 84.5 152.5t161.5 60.5q90 0 150 -66.5t42 -156.5q-18 -92 -84 -152.5t-163 -60.5q-92 0 -150 67.5t-41 155.5zM711 1743q-8 -43 18.5 -75t69.5 -32 q47 0 82.5 26.5t46.5 80.5q9 44 -19 76t-73 32q-50 0 -82.5 -30.5t-42.5 -77.5z" />
<glyph unicode="&#xc6;" horiz-adv-x="1615" d="M-31 0l664 1460h1079l-31 -155h-630l-88 -455h583l-30 -156h-584l-105 -538h631l-28 -156h-789l80 412h-395l-189 -412h-168zM393 565h357l143 740h-162z" />
<glyph unicode="&#xc7;" horiz-adv-x="1077" d="M127 312.5q0 33.5 6 62.5l139 712q8 42 27 88.5t58 101.5t90 97.5t131 71.5t174 29q66 0 121 -15t91.5 -40t65.5 -58.5t43 -70t23.5 -74t7 -71t-5.5 -61.5h-158q7 51 4.5 88t-20 63.5t-37.5 43t-48 25.5t-50.5 12.5t-45.5 3.5q-31 0 -64 -5.5t-75 -22t-76 -42t-62.5 -71 t-39.5 -103.5l-135 -702q-10 -44 -5.5 -78.5t13 -59.5t27.5 -43t38 -29.5t43.5 -18t45 -9t41.5 -2.5q29 0 60 4.5t71.5 20.5t73.5 40.5t61.5 69.5t40.5 103h157q-8 -43 -27.5 -90.5t-58.5 -102.5t-90.5 -98t-131 -71.5t-173.5 -28.5q-67 0 -122 15t-92 40t-64.5 59t-42.5 70 t-22 74.5t-7 72zM135 -412l254 324h148l-224 -324h-178z" />
<glyph unicode="&#xc8;" horiz-adv-x="1054" d="M82 0l283 1460h788l-31 -155h-630l-89 -455h584l-31 -156h-583l-105 -538h631l-29 -156h-788zM631 1921h168l98 -324h-137z" />
<glyph unicode="&#xc9;" horiz-adv-x="1054" d="M82 0l283 1460h788l-31 -155h-630l-89 -455h584l-31 -156h-583l-105 -538h631l-29 -156h-788zM655 1597l219 324h181l-254 -324h-146z" />
<glyph unicode="&#xca;" horiz-adv-x="1054" d="M82 0l283 1460h788l-31 -155h-630l-89 -455h584l-31 -156h-583l-105 -538h631l-29 -156h-788zM477 1597l281 322h129l157 -322h-137l-104 183l-172 -183h-154z" />
<glyph unicode="&#xcb;" horiz-adv-x="1054" d="M82 0l283 1460h788l-31 -155h-630l-89 -455h584l-31 -156h-583l-105 -538h631l-29 -156h-788zM446 1597l43 224h189l-43 -224h-189zM874 1597l44 224h188l-43 -224h-189z" />
<glyph unicode="&#xcc;" horiz-adv-x="485" d="M82 0l283 1460h157l-282 -1460h-158zM272 1921h168l99 -324h-138z" />
<glyph unicode="&#xcd;" horiz-adv-x="485" d="M82 0l283 1460h157l-282 -1460h-158zM395 1597l219 324h181l-254 -324h-146z" />
<glyph unicode="&#xce;" horiz-adv-x="485" d="M82 0l283 1460h157l-282 -1460h-158zM188 1597l281 322h129l158 -322h-138l-104 183l-172 -183h-154z" />
<glyph unicode="&#xcf;" horiz-adv-x="485" d="M82 0l283 1460h157l-282 -1460h-158zM164 1597l43 224h188l-43 -224h-188zM592 1597l43 224h188l-43 -224h-188z" />
<glyph unicode="&#xd0;" horiz-adv-x="1165" d="M96 694l29 146h151l121 620h424q79 0 140 -19.5t97 -53t59 -73.5t30 -85.5t7 -83.5t-7 -72l-131 -682q-9 -44 -25.5 -90t-52.5 -102t-83.5 -98.5t-123.5 -71.5t-168 -29h-448l133 694h-152zM301 156h270q30 0 59.5 4.5t66.5 20t67 40t56 69t38 103.5l131 674 q7 52 6.5 89.5t-15.5 64t-32 43t-42.5 25.5t-47 12.5t-45.5 3.5h-289l-90 -465h299l-28 -146h-299z" />
<glyph unicode="&#xd1;" horiz-adv-x="1163" d="M82 0l283 1460h176l276 -1163l225 1163h158l-282 -1460h-181l-276 1151l-221 -1151h-158zM492 1714q86 70 134 91.5t91 21.5q48 0 125.5 -44t107.5 -44q48 0 135 71l80 -104q-85 -68 -132.5 -88.5t-90.5 -20.5q-39 0 -82.5 22.5t-82.5 44.5t-68 22q-46 0 -138 -72z" />
<glyph unicode="&#xd2;" d="M126.5 311q0.5 34 6.5 64l139 712q7 36 21.5 74.5t39.5 84t63 85t87 72.5t117.5 52.5t147.5 19.5q66 0 121 -14.5t92 -39.5t66.5 -57.5t44 -69t24 -74t7.5 -72t-5 -63.5l-140 -712q-9 -46 -28 -93t-57.5 -102.5t-89.5 -97.5t-129.5 -70t-172.5 -28q-67 0 -122 15 t-92.5 39.5t-66 58t-43.5 69.5t-23 74.5t-7.5 72.5zM285 296.5q4 -34.5 13 -59.5t28.5 -43t38.5 -29.5t43.5 -18t44 -9t39.5 -2.5q29 0 60 5t72 20.5t74.5 40.5t62 70t40.5 104l137 708q10 44 6 78t-13 59t-28 43t-38 29t-43.5 17.5t-43.5 9t-39 2.5q-38 0 -79.5 -9.5 t-91.5 -33t-88 -74.5t-52 -123l-137 -706q-10 -44 -6 -78.5zM618 1921h168l99 -324h-137z" />
<glyph unicode="&#xd3;" d="M126.5 311q0.5 34 6.5 64l139 712q7 36 21.5 74.5t39.5 84t63 85t87 72.5t117.5 52.5t147.5 19.5q66 0 121 -14.5t92 -39.5t66.5 -57.5t44 -69t24 -74t7.5 -72t-5 -63.5l-140 -712q-9 -46 -28 -93t-57.5 -102.5t-89.5 -97.5t-129.5 -70t-172.5 -28q-67 0 -122 15 t-92.5 39.5t-66 58t-43.5 69.5t-23 74.5t-7.5 72.5zM285 296.5q4 -34.5 13 -59.5t28.5 -43t38.5 -29.5t43.5 -18t44 -9t39.5 -2.5q29 0 60 5t72 20.5t74.5 40.5t62 70t40.5 104l137 708q10 44 6 78t-13 59t-28 43t-38 29t-43.5 17.5t-43.5 9t-39 2.5q-38 0 -79.5 -9.5 t-91.5 -33t-88 -74.5t-52 -123l-137 -706q-10 -44 -6 -78.5zM694 1597l219 324h181l-254 -324h-146z" />
<glyph unicode="&#xd4;" d="M126.5 311q0.5 34 6.5 64l139 712q7 36 21.5 74.5t39.5 84t63 85t87 72.5t117.5 52.5t147.5 19.5q66 0 121 -14.5t92 -39.5t66.5 -57.5t44 -69t24 -74t7.5 -72t-5 -63.5l-140 -712q-9 -46 -28 -93t-57.5 -102.5t-89.5 -97.5t-129.5 -70t-172.5 -28q-67 0 -122 15 t-92.5 39.5t-66 58t-43.5 69.5t-23 74.5t-7.5 72.5zM285 296.5q4 -34.5 13 -59.5t28.5 -43t38.5 -29.5t43.5 -18t44 -9t39.5 -2.5q29 0 60 5t72 20.5t74.5 40.5t62 70t40.5 104l137 708q10 44 6 78t-13 59t-28 43t-38 29t-43.5 17.5t-43.5 9t-39 2.5q-38 0 -79.5 -9.5 t-91.5 -33t-88 -74.5t-52 -123l-137 -706q-10 -44 -6 -78.5zM500 1597l280 322h129l158 -322h-137l-105 183l-172 -183h-153z" />
<glyph unicode="&#xd5;" d="M126.5 311q0.5 34 6.5 64l139 712q7 36 21.5 74.5t39.5 84t63 85t87 72.5t117.5 52.5t147.5 19.5q66 0 121 -14.5t92 -39.5t66.5 -57.5t44 -69t24 -74t7.5 -72t-5 -63.5l-140 -712q-9 -46 -28 -93t-57.5 -102.5t-89.5 -97.5t-129.5 -70t-172.5 -28q-67 0 -122 15 t-92.5 39.5t-66 58t-43.5 69.5t-23 74.5t-7.5 72.5zM285 296.5q4 -34.5 13 -59.5t28.5 -43t38.5 -29.5t43.5 -18t44 -9t39.5 -2.5q29 0 60 5t72 20.5t74.5 40.5t62 70t40.5 104l137 708q10 44 6 78t-13 59t-28 43t-38 29t-43.5 17.5t-43.5 9t-39 2.5q-38 0 -79.5 -9.5 t-91.5 -33t-88 -74.5t-52 -123l-137 -706q-10 -44 -6 -78.5zM467 1714q86 70 134 91.5t91 21.5q48 0 126 -44t108 -44q48 0 135 71l80 -104q-85 -68 -132.5 -88.5t-90.5 -20.5q-39 0 -82.5 22.5t-83 44.5t-68.5 22q-45 0 -137 -72z" />
<glyph unicode="&#xd6;" d="M126.5 311q0.5 34 6.5 64l139 712q7 36 21.5 74.5t39.5 84t63 85t87 72.5t117.5 52.5t147.5 19.5q66 0 121 -14.5t92 -39.5t66.5 -57.5t44 -69t24 -74t7.5 -72t-5 -63.5l-140 -712q-9 -46 -28 -93t-57.5 -102.5t-89.5 -97.5t-129.5 -70t-172.5 -28q-67 0 -122 15 t-92.5 39.5t-66 58t-43.5 69.5t-23 74.5t-7.5 72.5zM285 296.5q4 -34.5 13 -59.5t28.5 -43t38.5 -29.5t43.5 -18t44 -9t39.5 -2.5q29 0 60 5t72 20.5t74.5 40.5t62 70t40.5 104l137 708q10 44 6 78t-13 59t-28 43t-38 29t-43.5 17.5t-43.5 9t-39 2.5q-38 0 -79.5 -9.5 t-91.5 -33t-88 -74.5t-52 -123l-137 -706q-10 -44 -6 -78.5zM475 1597l43 224h189l-43 -224h-189zM903 1597l43 224h189l-43 -224h-189z" />
<glyph unicode="&#xd7;" horiz-adv-x="1177" d="M195 291l323 270l-209 260l111 94l207 -260l321 269l92 -111l-321 -268l209 -262l-111 -93l-211 261l-319 -269z" />
<glyph unicode="&#xd8;" d="M0 -111l168 254q-59 107 -35 232l139 712q7 36 21.5 74.5t39.5 84t63 85t87 72.5t117.5 52.5t147.5 19.5q153 0 247 -80l103 155h114l-153 -233q59 -107 39 -232l-140 -712q-9 -46 -28 -93t-57.5 -102.5t-89.5 -97.5t-129.5 -70t-172.5 -28q-161 0 -252 81l-114 -174 h-115zM285 319l620 941q-56 61 -166 61q-38 0 -79.5 -9.5t-91.5 -33t-88 -74.5t-52 -123l-137 -706q-6 -30 -6 -56zM319 199q54 -64 173 -64q29 0 60 5t72 20.5t74.5 40.5t62 70t40.5 104l137 708q6 35 6 60z" />
<glyph unicode="&#xd9;" horiz-adv-x="1114" d="M126.5 310q0.5 34 6.5 65l211 1085h158l-211 -1085q-10 -44 -6 -78.5t13.5 -59.5t28.5 -43t38.5 -29.5t43.5 -18t43.5 -9t39.5 -2.5q30 0 61 5t72.5 20.5t75 40.5t62 70t40.5 104l211 1085h157l-210 -1087q-9 -46 -28 -93.5t-57.5 -102.5t-89 -97t-130 -70t-173.5 -28 q-69 0 -125.5 14.5t-94 39t-65.5 58t-43 69.5t-22 74.5t-6.5 72.5zM641 1921h168l98 -324h-137z" />
<glyph unicode="&#xda;" horiz-adv-x="1114" d="M126.5 310q0.5 34 6.5 65l211 1085h158l-211 -1085q-10 -44 -6 -78.5t13.5 -59.5t28.5 -43t38.5 -29.5t43.5 -18t43.5 -9t39.5 -2.5q30 0 61 5t72.5 20.5t75 40.5t62 70t40.5 104l211 1085h157l-210 -1087q-9 -46 -28 -93.5t-57.5 -102.5t-89 -97t-130 -70t-173.5 -28 q-69 0 -125.5 14.5t-94 39t-65.5 58t-43 69.5t-22 74.5t-6.5 72.5zM676 1597l219 324h180l-254 -324h-145z" />
<glyph unicode="&#xdb;" horiz-adv-x="1114" d="M126.5 310q0.5 34 6.5 65l211 1085h158l-211 -1085q-10 -44 -6 -78.5t13.5 -59.5t28.5 -43t38.5 -29.5t43.5 -18t43.5 -9t39.5 -2.5q30 0 61 5t72.5 20.5t75 40.5t62 70t40.5 104l211 1085h157l-210 -1087q-9 -46 -28 -93.5t-57.5 -102.5t-89 -97t-130 -70t-173.5 -28 q-69 0 -125.5 14.5t-94 39t-65.5 58t-43 69.5t-22 74.5t-6.5 72.5zM500 1597l280 322h129l158 -322h-137l-105 183l-172 -183h-153z" />
<glyph unicode="&#xdc;" horiz-adv-x="1114" d="M126.5 310q0.5 34 6.5 65l211 1085h158l-211 -1085q-10 -44 -6 -78.5t13.5 -59.5t28.5 -43t38.5 -29.5t43.5 -18t43.5 -9t39.5 -2.5q30 0 61 5t72.5 20.5t75 40.5t62 70t40.5 104l211 1085h157l-210 -1087q-9 -46 -28 -93.5t-57.5 -102.5t-89 -97t-130 -70t-173.5 -28 q-69 0 -125.5 14.5t-94 39t-65.5 58t-43 69.5t-22 74.5t-6.5 72.5zM475 1597l43 224h189l-43 -224h-189zM903 1597l43 224h189l-43 -224h-189z" />
<glyph unicode="&#xdd;" horiz-adv-x="1032" d="M254 1460h158l155 -737l432 737h181l-566 -934l-102 -526h-158l103 530zM635 1597l219 324h180l-254 -324h-145z" />
<glyph unicode="&#xde;" horiz-adv-x="1161" d="M82 0l283 1460h157l-61 -317h305q179 0 267.5 -115t53.5 -297q-35 -187 -158 -295t-304 -108h-322l-63 -328h-158zM332 483h305q45 0 87 12t85 38.5t75 79t46 124.5q24 117 -21.5 183.5t-156.5 66.5h-322z" />
<glyph unicode="&#xdf;" horiz-adv-x="1128" d="M82 0l211 1085q8 43 24.5 88.5t52.5 100.5t84 97t125.5 70.5t170.5 28.5q67 0 121 -15t89 -39.5t60 -58.5t37.5 -69.5t17.5 -74t3.5 -71t-7.5 -61.5q-15 -82 -59 -157t-115 -119q45 -25 73 -65.5t37 -85t9.5 -82.5t-6.5 -72l-21 -109q-10 -46 -26.5 -91t-52 -101.5 t-83 -98.5t-124 -71t-168.5 -29h-136l29 154h115q38 0 76.5 9t83 32.5t79.5 73.5t49 122l19 103q8 51 8.5 88.5t-12.5 64t-28 43t-38.5 25.5t-44 12.5t-43.5 3.5h-80l29 154h57q83 0 139.5 51.5t75.5 142.5q10 44 7 78t-10 59t-23.5 43t-33 29t-38 17.5t-40 9t-38.5 2.5 q-29 0 -58.5 -5t-67.5 -20.5t-68.5 -40t-56.5 -69.5t-37 -103l-209 -1079h-158z" />
<glyph unicode="&#xe0;" horiz-adv-x="1069" d="M100 340q28 145 137.5 221t264.5 76h297l20 102q22 112 -25.5 158.5t-154.5 46.5q-96 0 -169.5 -49t-98.5 -152h-154q16 74 51 134.5t78.5 100t95.5 66.5t103 38.5t102 11.5q58 0 109.5 -11.5t99 -37t77 -66t43 -99t-2.5 -135.5l-144 -745h-153l18 102 q-45 -53 -127 -86.5t-172 -33.5q-68 0 -127 22t-103.5 64t-63 112.5t-1.5 159.5zM250 332q-39 -201 180 -201q104 0 199 65.5t116 170.5l25 125h-276q-95 0 -161.5 -39t-82.5 -121zM547 1548h168l98 -323h-137z" />
<glyph unicode="&#xe1;" horiz-adv-x="1069" d="M100 340q28 145 137.5 221t264.5 76h297l20 102q22 112 -25.5 158.5t-154.5 46.5q-96 0 -169.5 -49t-98.5 -152h-154q16 74 51 134.5t78.5 100t95.5 66.5t103 38.5t102 11.5q58 0 109.5 -11.5t99 -37t77 -66t43 -99t-2.5 -135.5l-144 -745h-153l18 102 q-45 -53 -127 -86.5t-172 -33.5q-68 0 -127 22t-103.5 64t-63 112.5t-1.5 159.5zM250 332q-39 -201 180 -201q104 0 199 65.5t116 170.5l25 125h-276q-95 0 -161.5 -39t-82.5 -121zM561 1225l219 323h181l-254 -323h-146z" />
<glyph unicode="&#xe2;" horiz-adv-x="1069" d="M100 340q28 145 137.5 221t264.5 76h297l20 102q22 112 -25.5 158.5t-154.5 46.5q-96 0 -169.5 -49t-98.5 -152h-154q16 74 51 134.5t78.5 100t95.5 66.5t103 38.5t102 11.5q58 0 109.5 -11.5t99 -37t77 -66t43 -99t-2.5 -135.5l-144 -745h-153l18 102 q-45 -53 -127 -86.5t-172 -33.5q-68 0 -127 22t-103.5 64t-63 112.5t-1.5 159.5zM250 332q-39 -201 180 -201q104 0 199 65.5t116 170.5l25 125h-276q-95 0 -161.5 -39t-82.5 -121zM406 1225l280 321h129l158 -321h-137l-105 182l-172 -182h-153z" />
<glyph unicode="&#xe3;" horiz-adv-x="1069" d="M100 340q28 145 137.5 221t264.5 76h297l20 102q22 112 -25.5 158.5t-154.5 46.5q-96 0 -169.5 -49t-98.5 -152h-154q16 74 51 134.5t78.5 100t95.5 66.5t103 38.5t102 11.5q58 0 109.5 -11.5t99 -37t77 -66t43 -99t-2.5 -135.5l-144 -745h-153l18 102 q-45 -53 -127 -86.5t-172 -33.5q-68 0 -127 22t-103.5 64t-63 112.5t-1.5 159.5zM250 332q-39 -201 180 -201q104 0 199 65.5t116 170.5l25 125h-276q-95 0 -161.5 -39t-82.5 -121zM375 1346q85 70 133 91t92 21q48 0 126 -44t108 -44q47 0 135 72l80 -105q-85 -68 -133 -88 t-91 -20q-39 0 -82.5 22t-82.5 44t-68 22q-45 0 -137 -72z" />
<glyph unicode="&#xe4;" horiz-adv-x="1069" d="M100 340q28 145 137.5 221t264.5 76h297l20 102q22 112 -25.5 158.5t-154.5 46.5q-96 0 -169.5 -49t-98.5 -152h-154q16 74 51 134.5t78.5 100t95.5 66.5t103 38.5t102 11.5q58 0 109.5 -11.5t99 -37t77 -66t43 -99t-2.5 -135.5l-144 -745h-153l18 102 q-45 -53 -127 -86.5t-172 -33.5q-68 0 -127 22t-103.5 64t-63 112.5t-1.5 159.5zM250 332q-39 -201 180 -201q104 0 199 65.5t116 170.5l25 125h-276q-95 0 -161.5 -39t-82.5 -121zM387 1255l43 224h188l-43 -224h-188zM815 1255l43 224h189l-43 -224h-189z" />
<glyph unicode="&#xe5;" horiz-adv-x="1069" d="M100 340q28 145 137.5 221t264.5 76h297l20 102q22 112 -25.5 158.5t-154.5 46.5q-96 0 -169.5 -49t-98.5 -152h-154q16 74 51 134.5t78.5 100t95.5 66.5t103 38.5t102 11.5q58 0 109.5 -11.5t99 -37t77 -66t43 -99t-2.5 -135.5l-144 -745h-153l18 102 q-45 -53 -127 -86.5t-172 -33.5q-68 0 -127 22t-103.5 64t-63 112.5t-1.5 159.5zM250 332q-39 -201 180 -201q104 0 199 65.5t116 170.5l25 125h-276q-95 0 -161.5 -39t-82.5 -121zM498 1368q18 93 84 153t161 60q90 0 150.5 -66.5t42.5 -156.5q-18 -92 -84.5 -152.5 t-163.5 -60.5q-92 0 -149.5 67.5t-40.5 155.5zM608 1362q-8 -43 18.5 -75t69.5 -32q47 0 82.5 26.5t46.5 80.5q9 44 -19 76t-73 32q-50 0 -82.5 -30.5t-42.5 -77.5z" />
<glyph unicode="&#xe6;" horiz-adv-x="1695" d="M96 332q30 146 143 226.5t265 80.5h297l20 102q22 111 -29.5 157t-156.5 46q-90 0 -162 -47.5t-98 -153.5h-156q16 75 51.5 136t79.5 100t96.5 66t102.5 38t98 11q99 0 177.5 -39t113.5 -107q46 64 141.5 105t198.5 41q183 0 273.5 -104t56.5 -283l-43 -218h-637 l-25 -120q-45 -238 189 -238q103 0 180 58.5t108 162.5h156q-46 -171 -167.5 -270.5t-289.5 -99.5q-112 0 -193 46t-106 124q-60 -79 -158 -124.5t-219 -45.5q-70 0 -131.5 23t-107.5 65.5t-65.5 110.5t-2.5 151zM252 332q-22 -109 26.5 -155t151.5 -46q124 0 212.5 73.5 t105.5 160.5l24 129h-278q-95 0 -160.5 -39.5t-81.5 -122.5zM956 639h482l14 68q43 237 -186 237q-112 0 -192.5 -60.5t-100.5 -164.5z" />
<glyph unicode="&#xe7;" horiz-adv-x="1050" d="M131 369l68 338q34 178 159.5 282.5t309.5 104.5q175 0 267 -101t69 -274h-154q25 225 -195 225q-117 0 -199.5 -63t-103.5 -174l-67 -338q-4 -32 -6.5 -65.5t9.5 -65t32.5 -55.5t62 -39t98.5 -15q108 0 186 59t109 164h156q-48 -171 -171.5 -271.5t-291.5 -100.5 q-185 0 -278 105.5t-60 283.5zM145 -412l254 324h148l-223 -324h-179z" />
<glyph unicode="&#xe8;" horiz-adv-x="1081" d="M131 369l68 338q34 177 160.5 282t306.5 105q184 0 277.5 -104.5t60.5 -282.5l-43 -218h-652l-24 -120q-4 -32 -6.5 -65.5t9.5 -65t32.5 -55.5t62 -39t98.5 -15q106 0 187 60t108 163h156q-48 -172 -170.5 -272t-290.5 -100q-185 0 -279 105.5t-61 283.5zM338 639h498 l14 68q4 33 6 66.5t-9.5 64t-32 54.5t-61.5 38t-98 14q-117 0 -199.5 -63t-103.5 -174zM547 1548h168l98 -323h-137z" />
<glyph unicode="&#xe9;" horiz-adv-x="1081" d="M131 369l68 338q34 177 160.5 282t306.5 105q184 0 277.5 -104.5t60.5 -282.5l-43 -218h-652l-24 -120q-4 -32 -6.5 -65.5t9.5 -65t32.5 -55.5t62 -39t98.5 -15q106 0 187 60t108 163h156q-48 -172 -170.5 -272t-290.5 -100q-185 0 -279 105.5t-61 283.5zM338 639h498 l14 68q4 33 6 66.5t-9.5 64t-32 54.5t-61.5 38t-98 14q-117 0 -199.5 -63t-103.5 -174zM561 1225l219 323h181l-254 -323h-146z" />
<glyph unicode="&#xea;" horiz-adv-x="1081" d="M131 369l68 338q34 177 160.5 282t306.5 105q184 0 277.5 -104.5t60.5 -282.5l-43 -218h-652l-24 -120q-4 -32 -6.5 -65.5t9.5 -65t32.5 -55.5t62 -39t98.5 -15q106 0 187 60t108 163h156q-48 -172 -170.5 -272t-290.5 -100q-185 0 -279 105.5t-61 283.5zM338 639h498 l14 68q4 33 6 66.5t-9.5 64t-32 54.5t-61.5 38t-98 14q-117 0 -199.5 -63t-103.5 -174zM412 1225l280 321h129l158 -321h-137l-105 182l-172 -182h-153z" />
<glyph unicode="&#xeb;" horiz-adv-x="1081" d="M131 369l68 338q34 177 160.5 282t306.5 105q184 0 277.5 -104.5t60.5 -282.5l-43 -218h-652l-24 -120q-4 -32 -6.5 -65.5t9.5 -65t32.5 -55.5t62 -39t98.5 -15q106 0 187 60t108 163h156q-48 -172 -170.5 -272t-290.5 -100q-185 0 -279 105.5t-61 283.5zM338 639h498 l14 68q4 33 6 66.5t-9.5 64t-32 54.5t-61.5 38t-98 14q-117 0 -199.5 -63t-103.5 -174zM393 1255l43 224h189l-43 -224h-189zM821 1255l43 224h189l-43 -224h-189z" />
<glyph unicode="&#xec;" horiz-adv-x="481" d="M82 0l209 1077h153l-208 -1077h-154zM201 1548h168l98 -323h-137z" />
<glyph unicode="&#xed;" horiz-adv-x="481" d="M82 0l209 1077h153l-208 -1077h-154zM328 1225l219 323h180l-254 -323h-145z" />
<glyph unicode="&#xee;" horiz-adv-x="481" d="M82 0l209 1077h153l-208 -1077h-154zM113 1225l280 321h129l158 -321h-137l-105 182l-172 -182h-153z" />
<glyph unicode="&#xef;" horiz-adv-x="481" d="M82 0l209 1077h153l-208 -1077h-154zM94 1255l43 224h189l-43 -224h-189zM522 1255l43 224h189l-43 -224h-189z" />
<glyph unicode="&#xf0;" horiz-adv-x="1124" d="M124.5 302q0.5 32 6.5 60l35 179q8 42 27.5 88t57.5 98.5t87.5 93t125.5 67.5t165 27q73 0 145.5 -33t99.5 -75l56 278l6 50l-178 -150l-80 96l219 185q-53 55 -174 55l29 154q179 0 268 -107l190 162l78 -96l-213 -181q22 -79 6 -163l-147 -752q-9 -47 -29 -93 t-57.5 -94.5t-87 -85t-124 -60t-163.5 -23.5q-67 0 -122 14.5t-92 39t-64.5 57.5t-42 68t-21.5 72t-6.5 69zM280.5 281q2.5 -37 20.5 -63.5t38.5 -43t48.5 -25.5t51 -12.5t46 -3.5q29 0 59.5 4.5t71 20t73 40t60.5 69t39 102.5l31 157q8 51 6 88.5t-19.5 64t-37 43t-47.5 26 t-50.5 13t-45.5 3.5q-29 0 -60 -4.5t-72 -20.5t-75 -40.5t-62.5 -69.5t-40.5 -103l-30 -157q-7 -51 -4.5 -88z" />
<glyph unicode="&#xf1;" horiz-adv-x="1110" d="M82 0l209 1079h153l-20 -102q49 55 125.5 86t150.5 31q182 0 263 -102.5t47 -284.5l-138 -707h-153l137 707q6 32 8.5 55t1.5 53t-12 51t-29.5 40t-53.5 28.5t-83 9.5q-110 0 -202.5 -66t-112.5 -167l-137 -711h-154zM395 1346q85 70 133.5 91t92.5 21q48 0 125.5 -44 t107.5 -44q47 0 135 72l80 -105q-85 -68 -132.5 -88t-90.5 -20q-39 0 -82.5 22t-83 44t-68.5 22q-45 0 -137 -72z" />
<glyph unicode="&#xf2;" horiz-adv-x="1091" d="M131 369l68 338q34 177 160.5 282t306.5 105q184 0 277.5 -104.5t60.5 -282.5l-68 -338q-34 -177 -160.5 -283t-304.5 -106q-185 0 -279 105.5t-61 283.5zM285 369q-45 -240 196 -240q111 0 195.5 65.5t105.5 174.5l68 338q43 237 -195 237q-113 0 -197.5 -63.5 t-105.5 -173.5zM547 1548h168l98 -323h-137z" />
<glyph unicode="&#xf3;" horiz-adv-x="1091" d="M131 369l68 338q34 177 160.5 282t306.5 105q184 0 277.5 -104.5t60.5 -282.5l-68 -338q-34 -177 -160.5 -283t-304.5 -106q-185 0 -279 105.5t-61 283.5zM285 369q-45 -240 196 -240q111 0 195.5 65.5t105.5 174.5l68 338q43 237 -195 237q-113 0 -197.5 -63.5 t-105.5 -173.5zM561 1225l219 323h181l-254 -323h-146z" />
<glyph unicode="&#xf4;" horiz-adv-x="1091" d="M131 369l68 338q34 177 160.5 282t306.5 105q184 0 277.5 -104.5t60.5 -282.5l-68 -338q-34 -177 -160.5 -283t-304.5 -106q-185 0 -279 105.5t-61 283.5zM285 369q-45 -240 196 -240q111 0 195.5 65.5t105.5 174.5l68 338q43 237 -195 237q-113 0 -197.5 -63.5 t-105.5 -173.5zM418 1225l280 321h129l158 -321h-137l-105 182l-172 -182h-153z" />
<glyph unicode="&#xf5;" horiz-adv-x="1091" d="M131 369l68 338q34 177 160.5 282t306.5 105q184 0 277.5 -104.5t60.5 -282.5l-68 -338q-34 -177 -160.5 -283t-304.5 -106q-185 0 -279 105.5t-61 283.5zM285 369q-45 -240 196 -240q111 0 195.5 65.5t105.5 174.5l68 338q43 237 -195 237q-113 0 -197.5 -63.5 t-105.5 -173.5zM387 1346q85 70 133 91t92 21q48 0 126 -44t108 -44q47 0 135 72l80 -105q-85 -68 -132.5 -88t-90.5 -20q-39 0 -82.5 22t-83 44t-68.5 22q-45 0 -137 -72z" />
<glyph unicode="&#xf6;" horiz-adv-x="1091" d="M131 369l68 338q34 177 160.5 282t306.5 105q184 0 277.5 -104.5t60.5 -282.5l-68 -338q-34 -177 -160.5 -283t-304.5 -106q-185 0 -279 105.5t-61 283.5zM285 369q-45 -240 196 -240q111 0 195.5 65.5t105.5 174.5l68 338q43 237 -195 237q-113 0 -197.5 -63.5 t-105.5 -173.5zM399 1255l43 224h189l-43 -224h-189zM827 1255l43 224h189l-43 -224h-189z" />
<glyph unicode="&#xf7;" horiz-adv-x="1099" d="M145 367l29 145h770l-29 -145h-770zM348 0l43 225h223l-43 -225h-223zM473 649l45 225h223l-45 -225h-223z" />
<glyph unicode="&#xf8;" horiz-adv-x="1089" d="M68 -106l127 188q-98 109 -64 287l68 338q34 177 160.5 282t306.5 105q108 0 186 -37l84 125h117l-123 -183q108 -105 74 -292l-68 -338q-34 -177 -160.5 -283t-304.5 -106q-111 0 -199 43l-86 -129h-118zM285 369q-18 -86 6 -144l473 701q-43 18 -109 18 q-113 0 -197.5 -63.5t-105.5 -173.5zM360 152q48 -23 121 -23q111 0 195.5 65.5t105.5 174.5l68 338q19 100 -12 155z" />
<glyph unicode="&#xf9;" horiz-adv-x="1116" d="M143 369l140 710h153l-139 -710q-45 -238 190 -238q109 0 193.5 63t105.5 164l140 721h153l-209 -1079h-153l16 86q-45 -47 -116.5 -75.5t-141.5 -28.5q-184 0 -275 104.5t-57 282.5zM549 1548h168l98 -323h-137z" />
<glyph unicode="&#xfa;" horiz-adv-x="1116" d="M143 369l140 710h153l-139 -710q-45 -238 190 -238q109 0 193.5 63t105.5 164l140 721h153l-209 -1079h-153l16 86q-45 -47 -116.5 -75.5t-141.5 -28.5q-184 0 -275 104.5t-57 282.5zM584 1225l219 323h180l-254 -323h-145z" />
<glyph unicode="&#xfb;" horiz-adv-x="1116" d="M143 369l140 710h153l-139 -710q-45 -238 190 -238q109 0 193.5 63t105.5 164l140 721h153l-209 -1079h-153l16 86q-45 -47 -116.5 -75.5t-141.5 -28.5q-184 0 -275 104.5t-57 282.5zM430 1225l281 321h129l157 -321h-137l-104 182l-172 -182h-154z" />
<glyph unicode="&#xfc;" horiz-adv-x="1116" d="M143 369l140 710h153l-139 -710q-45 -238 190 -238q109 0 193.5 63t105.5 164l140 721h153l-209 -1079h-153l16 86q-45 -47 -116.5 -75.5t-141.5 -28.5q-184 0 -275 104.5t-57 282.5zM412 1255l43 224h188l-43 -224h-188zM840 1255l43 224h188l-43 -224h-188z" />
<glyph unicode="&#xfd;" horiz-adv-x="921" d="M-41 -463l31 150h94q68 0 105 23.5t67 90.5l92 199h-86l-92 1079h158l71 -932h15l426 932h166l-592 -1284q-38 -84 -75 -135t-84 -78.5t-96 -36t-126 -8.5h-74zM496 1225l219 323h180l-254 -323h-145z" />
<glyph unicode="&#xfe;" horiz-adv-x="1095" d="M-8 -463l368 1901h154l-88 -451q44 47 114.5 77t139.5 30q183 0 272.5 -104t55.5 -283l-68 -338q-34 -178 -157.5 -283.5t-301.5 -105.5q-69 0 -138 30.5t-93 73.5l-105 -547h-153zM305 369q-45 -240 189 -240q112 0 191 65t101 175l68 338q43 237 -186 237 q-116 0 -194.5 -62.5t-100.5 -174.5z" />
<glyph unicode="&#xff;" horiz-adv-x="921" d="M-41 -463l31 150h94q68 0 105 23.5t67 90.5l92 199h-86l-92 1079h158l71 -932h15l426 932h166l-592 -1284q-38 -84 -75 -135t-84 -78.5t-96 -36t-126 -8.5h-74zM315 1255l43 224h189l-43 -224h-189zM743 1255l43 224h189l-43 -224h-189z" />
<glyph unicode="&#x152;" horiz-adv-x="1703" d="M127.5 312.5q2.5 34.5 5.5 62.5l141 719q8 42 26.5 87.5t57 99.5t89 95t129 69t172.5 28q163 0 253 -76l13 63h788l-30 -155h-631l-88 -455h583l-30 -156h-584l-104 -540h630l-28 -154h-789l10 57q-122 -75 -262 -75q-66 0 -121 15t-91.5 40.5t-65.5 58.5t-43 70 t-23.5 74.5t-7 72zM285 296.5q5 -34.5 14 -59.5t28.5 -42.5t39 -29t44 -17.5t44 -8.5t39.5 -2.5q29 0 59 4t70.5 18.5t73 37t62 64.5t42.5 97l139 725q11 44 6 77.5t-14 58.5t-28.5 42.5t-38.5 28t-44 17t-44.5 8.5t-39.5 2q-29 0 -60 -4.5t-72 -19.5t-74.5 -39t-62 -68.5 t-40.5 -102.5l-137 -708q-11 -44 -6 -78.5z" />
<glyph unicode="&#x153;" horiz-adv-x="1716" d="M131 369l68 338q34 178 159 282.5t306 104.5q100 0 174.5 -38t111.5 -100q138 138 348 138q183 0 273.5 -104t56.5 -283l-43 -218h-639l-26 -137q-4 -31 -5.5 -62.5t10 -60.5t31.5 -51t59.5 -35.5t94.5 -13.5q104 0 183 60t110 163h153q-46 -171 -169 -271.5t-291 -100.5 q-111 0 -182 33t-115 106q-127 -139 -338 -139q-185 0 -274.5 104.5t-55.5 284.5zM277.5 303q-0.5 -31 9.5 -64t31 -56.5t62 -38.5t99 -15q110 0 186.5 61.5t102.5 167.5l70 365q4 32 5.5 63t-11 59.5t-33 50.5t-60 35t-92.5 13q-116 0 -194.5 -62.5t-100.5 -174.5l-67 -338 q-7 -35 -7.5 -66zM975 639h485l15 68q43 237 -193 237q-112 0 -191.5 -60.5t-99.5 -164.5z" />
<glyph unicode="&#x178;" horiz-adv-x="1032" d="M254 1460h158l155 -737l432 737h181l-566 -934l-102 -526h-158l103 530zM434 1597l43 224h189l-43 -224h-189zM862 1597l43 224h189l-43 -224h-189z" />
<glyph unicode="&#x2c6;" horiz-adv-x="923" d="M332 1225l280 321h129l158 -321h-137l-105 182l-172 -182h-153z" />
<glyph unicode="&#x2dc;" horiz-adv-x="997" d="M340 1346q85 70 133 91t92 21q48 0 126 -44t108 -44q47 0 135 72l80 -105q-85 -68 -132.5 -88t-90.5 -20q-39 0 -82.5 22t-83 44t-68.5 22q-45 0 -137 -72z" />
<glyph unicode="&#x2000;" horiz-adv-x="981" />
<glyph unicode="&#x2001;" horiz-adv-x="1962" />
<glyph unicode="&#x2002;" horiz-adv-x="981" />
<glyph unicode="&#x2003;" horiz-adv-x="1962" />
<glyph unicode="&#x2004;" horiz-adv-x="654" />
<glyph unicode="&#x2005;" horiz-adv-x="490" />
<glyph unicode="&#x2006;" horiz-adv-x="327" />
<glyph unicode="&#x2007;" horiz-adv-x="327" />
<glyph unicode="&#x2008;" horiz-adv-x="245" />
<glyph unicode="&#x2009;" horiz-adv-x="392" />
<glyph unicode="&#x200a;" horiz-adv-x="109" />
<glyph unicode="&#x2010;" horiz-adv-x="935" d="M180 506l27 145h608l-27 -145h-608z" />
<glyph unicode="&#x2011;" horiz-adv-x="935" d="M180 506l27 145h608l-27 -145h-608z" />
<glyph unicode="&#x2012;" horiz-adv-x="935" d="M180 506l27 145h608l-27 -145h-608z" />
<glyph unicode="&#x2013;" horiz-adv-x="1196" d="M180 506l27 145h868l-26 -145h-869z" />
<glyph unicode="&#x2014;" horiz-adv-x="1695" d="M180 506l27 145h1368l-27 -145h-1368z" />
<glyph unicode="&#x2018;" horiz-adv-x="532" d="M240 1118l276 412h146l-244 -412h-178z" />
<glyph unicode="&#x2019;" horiz-adv-x="530" d="M219 1118l242 412h178l-274 -412h-146z" />
<glyph unicode="&#x201a;" horiz-adv-x="532" d="M-43 -225l244 411h178l-277 -411h-145z" />
<glyph unicode="&#x201c;" horiz-adv-x="833" d="M240 1118l274 412h148l-242 -412h-180zM545 1118l276 412h144l-242 -412h-178z" />
<glyph unicode="&#x201d;" horiz-adv-x="835" d="M219 1118l244 412h178l-276 -412h-146zM522 1118l244 412h180l-276 -412h-148z" />
<glyph unicode="&#x201e;" horiz-adv-x="835" d="M-43 -225l244 411h178l-277 -411h-145zM260 -225l244 411h180l-276 -411h-148z" />
<glyph unicode="&#x2022;" horiz-adv-x="778" d="M225 715q0 95 67.5 162t162.5 67t162 -67t67 -162t-67 -162.5t-162 -67.5t-162.5 67.5t-67.5 162.5z" />
<glyph unicode="&#x2026;" horiz-adv-x="1366" d="M74 0l41 217h196l-41 -217h-196zM504 0l41 217h194l-41 -217h-194zM932 0l41 217h196l-41 -217h-196z" />
<glyph unicode="&#x202f;" horiz-adv-x="392" />
<glyph unicode="&#x2039;" horiz-adv-x="612" d="M84 541l489 409l-43 -215l-247 -207l168 -206l-37 -189z" />
<glyph unicode="&#x203a;" horiz-adv-x="610" d="M88 135l41 215l246 207l-166 205l37 190l325 -409z" />
<glyph unicode="&#x205f;" horiz-adv-x="490" />
<glyph unicode="&#x20ac;" horiz-adv-x="1124" d="M111 516l28 148h166l29 145h-166l29 147h165l27 131q9 44 25.5 88.5t52.5 100.5t84 97.5t125.5 70.5t171.5 29q64 0 116 -15t86 -39t59 -58t38 -69.5t19 -75t6 -73.5t-5 -66h-155q6 52 4 90t-17.5 65t-32.5 43.5t-42 25.5t-46 12.5t-44 3.5q-29 0 -58.5 -4.5t-67.5 -20 t-68.5 -40t-56.5 -68.5t-38 -103l-25 -125h385l-28 -147h-385l-29 -145h385l-29 -148h-385l-26 -139q-10 -44 -6.5 -78.5t11 -59.5t24.5 -43t34 -29.5t39.5 -18t41 -9t38.5 -2.5q28 0 56 5t64 20.5t66 40.5t57 69t41 101h156q-9 -36 -21.5 -70.5t-33 -74.5t-45.5 -74 t-61.5 -66.5t-79 -55t-99 -36.5t-121.5 -14q-78 0 -138 20t-95 53.5t-57.5 74t-29.5 86.5t-6.5 84.5t7.5 74.5l26 141h-165z" />
<glyph unicode="&#x2122;" horiz-adv-x="1427" d="M334 1307l24 131h514l-24 -131h-191l-129 -660h-135l129 660h-188zM750 647l153 791h174l31 -353l162 353h188l-153 -791h-134l97 496l-150 -297h-104l-35 295l-96 -494h-133z" />
<glyph unicode="&#x25fc;" horiz-adv-x="1075" d="M0 0v1075h1075v-1075h-1075z" />
<glyph unicode="&#xfb01;" horiz-adv-x="1198" d="M135 926l31 149h186l15 80q61 305 335 305h109l-29 -149h-106q-47 0 -92.5 -31.5t-59.5 -99.5l-18 -105h639l-209 -1075h-154l179 926h-486l-178 -926h-154l179 926h-187zM1008 1253l43 222h186l-43 -222h-186z" />
<glyph unicode="&#xfb02;" horiz-adv-x="1196" d="M137 926l31 149h186l15 80q61 305 340 305h104l-29 -149h-106q-47 0 -92.5 -31.5t-59.5 -99.5l-18 -105h465l74 385h153l-231 -1190q-12 -66 7.5 -93t76.5 -27h57l-29 -150h-51q-115 0 -178 69.5t-35 209.5l125 647h-465l-178 -926h-154l179 926h-187z" />
</font>
</defs>
</svg>
