<?xml version="1.0" standalone="no"?>
<!DOCTYPE svg PUBLIC "-//W3C//DTD SVG 1.1//EN" "http://www.w3.org/Graphics/SVG/1.1/DTD/svg11.dtd" >
<svg xmlns="http://www.w3.org/2000/svg" xmlns:xlink="http://www.w3.org/1999/xlink" version="1.1">
<metadata></metadata>
<defs>
<font id="oxfam_tstar_probold_italic" horiz-adv-x="1116" >
<font-face units-per-em="2048" ascent="1585" descent="-463" />
<missing-glyph horiz-adv-x="512" />
<glyph horiz-adv-x="0" />
<glyph horiz-adv-x="682" />
<glyph unicode=" "  horiz-adv-x="512" />
<glyph unicode="&#x09;" horiz-adv-x="512" />
<glyph unicode="&#xa0;" horiz-adv-x="512" />
<glyph unicode="!" horiz-adv-x="557" d="M74 0l47 246h246l-48 -246h-245zM174 385l209 1075h195l-209 -1075h-195z" />
<glyph unicode="&#x22;" horiz-adv-x="774" d="M291 1120l82 422h174l-82 -422h-174zM580 1120l82 422h174l-82 -422h-174z" />
<glyph unicode="#" horiz-adv-x="1347" d="M160 444l33 177h202l76 210h-176l35 175h198l138 372h184l-129 -372h205l137 372h180l-133 -372h195l-35 -175h-221l-76 -210h196l-32 -177h-222l-147 -405h-180l139 405h-205l-149 -405h-183l144 405h-174zM580 621h208l76 210h-207z" />
<glyph unicode="$" horiz-adv-x="1073" d="M88 385h199q-20 -98 29.5 -153.5t152.5 -55.5q115 0 199.5 60t101.5 153q25 132 -80 201q-35 23 -80.5 49.5t-109.5 63t-107 61.5q-82 47 -122 139.5t-19 200.5q28 145 132.5 242t256.5 120l37 183h190l-37 -189q141 -31 211 -134.5t43 -248.5h-198q18 95 -29 148 t-145 53q-94 0 -170.5 -50.5t-93.5 -137.5q-22 -112 73 -168q228 -128 285 -162q101 -62 143.5 -161t18.5 -222q-30 -154 -146 -259t-276 -130l-37 -183h-191l35 187q-149 29 -222 136.5t-44 256.5z" />
<glyph unicode="%" horiz-adv-x="1730" d="M254 983l39 199q25 129 110.5 203.5t212.5 74.5q130 0 198 -75.5t44 -202.5l-39 -199q-25 -126 -110 -200t-211 -74q-130 0 -199 75t-45 199zM410 -104l862 1652h162l-859 -1652h-165zM440 983q-18 -92 74 -92q45 0 77.5 25t41.5 67l39 199q18 96 -72 96 q-45 0 -79.5 -26.5t-41.5 -69.5zM979 274l39 199q25 129 110 204t211 75q130 0 199 -76t45 -203l-39 -199q-23 -126 -109 -200t-212 -74q-130 0 -199 75t-45 199zM1165 274q-18 -92 76 -92q45 0 77.5 25t39.5 67l39 199q18 96 -74 96q-45 0 -77.5 -26t-41.5 -70z" />
<glyph unicode="&#x26;" horiz-adv-x="1335" d="M127 259q-16 72 2 165q24 120 108 214.5t212 158.5q-15 12 -27 24q-62 69 -83.5 138t-6.5 153q15 78 51 140.5t81.5 102.5t101.5 66.5t109.5 37.5t106.5 11q186 0 288 -115t65 -308h-197q20 108 -23 168.5t-141 60.5q-40 0 -76.5 -8t-73.5 -26t-63.5 -54t-36.5 -86 q-11 -57 8.5 -100t61.5 -87l565 -569l-141 -139l-55 57q-72 -148 -191.5 -215t-265.5 -67q-60 0 -119 16.5t-114 50.5t-92.5 86t-53.5 124zM328 408q-12 -65 1 -112.5t45.5 -72.5t69 -36t76.5 -11q47 0 91.5 11t88.5 36t78 71t49 109l-258 261q-10 -5 -61 -35 q-155 -90 -180 -221z" />
<glyph unicode="'" horiz-adv-x="485" d="M291 1120l82 422h174l-82 -422h-174z" />
<glyph unicode="(" horiz-adv-x="632" d="M111 199l198 1018q24 131 72 196q10 13 20.5 25.5t25.5 27t23.5 23t30 26.5t29 24.5t35.5 29t35 28.5l100 -145q-65 -57 -89.5 -81t-41.5 -48q-39 -60 -49 -117l-195 -997q-18 -89 -6 -127q15 -51 82 -131l-137 -129q-108 126 -127 188q-26 78 -6 189z" />
<glyph unicode=")" horiz-adv-x="636" d="M61 -35q95 71 132 113q36 42 51 117l196 1001q17 88 6 123q-18 61 -81 137l137 129q103 -122 125 -188q28 -84 8 -191l-201 -1022q-28 -138 -74 -200q-25 -34 -63 -67.5t-129 -104.5z" />
<glyph unicode="*" horiz-adv-x="1202" d="M367 950l200 94l-161 103l102 135l160 -108l37 217h161l-47 -213l199 106l59 -139l-198 -98l155 -99l-94 -139l-170 111l-35 -213h-160l41 211l-192 -105z" />
<glyph unicode="+" horiz-adv-x="1146" d="M154 483l36 185h336l64 325h186l-63 -325h338l-37 -185h-338l-68 -348h-186l67 348h-335z" />
<glyph unicode="," horiz-adv-x="659" d="M-51 -211l272 455h232l-306 -455h-198z" />
<glyph unicode="-" horiz-adv-x="940" d="M166 483l37 185h628l-36 -185h-629z" />
<glyph unicode="." horiz-adv-x="557" d="M66 0l49 262h262l-49 -262h-262z" />
<glyph unicode="/" horiz-adv-x="1038" d="M53 -102l852 1632h193l-850 -1632h-195z" />
<glyph unicode="0" horiz-adv-x="1052" d="M116 301q0 39 7 74l139 710q9 45 25.5 90t52 101t83.5 97.5t125.5 70.5t170.5 29q78 0 139 -19.5t96.5 -53t59 -73.5t31 -85.5t7 -84.5t-7.5 -74l-137 -710q-9 -45 -25.5 -91t-53 -102t-85 -98t-126.5 -71t-173 -29q-77 0 -137 20t-95 53.5t-58 74t-30.5 86.5t-7.5 85z M315 289q8 -36 21 -58.5t38 -35t46.5 -17t46.5 -4.5t50 4t56.5 17.5t57.5 34.5t48 59t32 88l137 704q6 43 6.5 75t-11.5 54t-25.5 35.5t-34.5 21.5t-38.5 10.5t-37.5 2.5q-33 0 -65.5 -7.5t-72 -26.5t-70 -61.5t-42.5 -103.5l-138 -704q-12 -52 -4 -88z" />
<glyph unicode="1" horiz-adv-x="1060" d="M72 0l37 195h278l209 1071l-207 -17l37 189l405 32l-247 -1275h284l-37 -195h-759z" />
<glyph unicode="2" horiz-adv-x="1042" d="M27 0l57 305q37 181 252 332q63 44 198.5 118.5t206.5 125.5q100 71 121 172q21 107 -21 167t-143 60q-26 0 -53 -4.5t-62 -20t-64 -40.5t-55 -69t-38 -102h-199q10 50 29.5 101.5t58.5 112.5t90 107t131 77t175 31q183 0 283 -119t65 -299q-40 -190 -215 -316 q-71 -52 -215 -130.5t-213 -125.5q-58 -42 -91 -85t-46 -103l-19 -100h629l-37 -195h-825z" />
<glyph unicode="3" horiz-adv-x="1048" d="M94 305q1 36 8 70h197q-12 -50 -3.5 -85.5t23 -58t40.5 -35t50.5 -17.5t51.5 -5q37 0 73 8.5t77 29t72.5 64.5t43.5 105l29 139q6 43 4 73.5t-17 52t-31.5 34.5t-40.5 20.5t-43 10t-40 2.5h-117l31 153l329 400h-499l37 194h735l-35 -176l-344 -407q62 -11 108.5 -40 t71.5 -66t40 -81t13.5 -86t-6.5 -80l-26 -143q-9 -45 -28 -93t-57 -104.5t-88.5 -100t-129 -72.5t-172.5 -29q-68 0 -124 14t-94 37t-66.5 55t-43.5 67.5t-22.5 74.5t-6.5 75z" />
<glyph unicode="4" horiz-adv-x="1069" d="M121 397l35 178l499 885h211l-487 -868h399l101 524h196l-215 -1116h-196l75 397h-618z" />
<glyph unicode="5" horiz-adv-x="1044" d="M88 369h197q-19 -92 28 -143.5t146 -51.5q110 0 181.5 55t94.5 158l29 131q17 94 -21.5 155.5t-144.5 61.5h-381l33 168l149 557h674l-37 -194h-491l-92 -344h172q79 0 148 -28.5t117.5 -79.5t68.5 -127t2 -165l-27 -133q-36 -181 -167.5 -294t-317.5 -113 q-189 0 -291 108t-70 279z" />
<glyph unicode="6" horiz-adv-x="1048" d="M90.5 304q1.5 34 5.5 63l142 720q8 44 26.5 89.5t56.5 99.5t89 95.5t131 69t176 27.5q66 0 119 -16t88 -43t60 -64t37.5 -76t17.5 -81.5t3 -79t-8 -70.5h-192q7 51 8 88.5t-10 64t-24 43t-34.5 26t-41.5 13t-44 3.5q-41 0 -79.5 -10t-78 -32.5t-69 -67.5t-41.5 -107 l-37 -191q40 33 101 53.5t120 20.5q67 0 122 -14.5t92.5 -39t65.5 -57.5t43 -68.5t22.5 -74t7 -72.5t-6.5 -65l-36 -182q-8 -43 -26 -89t-55.5 -101t-88 -97.5t-129.5 -71t-174 -28.5q-65 0 -120 14.5t-92.5 38.5t-67.5 56.5t-45 68t-25 73t-8.5 71.5zM292.5 288.5 q9.5 -35.5 25 -58t42.5 -35t50 -17t47 -4.5q33 0 68.5 7.5t79 27t77 62.5t45.5 104l35 174q6 44 4 75.5t-16.5 54.5t-31 37t-40 22t-43 11t-39.5 3q-25 0 -52 -4t-62.5 -17.5t-64.5 -34.5t-53.5 -59t-33.5 -88l-35 -174q-12 -51 -2.5 -86.5z" />
<glyph unicode="7" horiz-adv-x="1044" d="M201 0l706 1266h-651l37 194h860l-31 -164l-719 -1296h-202z" />
<glyph unicode="8" horiz-adv-x="1064" d="M89 342.5q2 39.5 7 73.5q21 103 82.5 192.5t169.5 145.5q-68 52 -98 139t-14 170q11 53 29 102.5t56.5 107.5t90 99.5t134.5 69.5t185 28q64 0 118 -14.5t91 -39t66.5 -57.5t45 -70.5t25.5 -77t8 -77t-6 -71.5q-16 -89 -82 -178.5t-163 -139.5q47 -28 79 -70.5 t44.5 -86.5t16.5 -90.5t-5 -81.5q-11 -55 -29.5 -106.5t-58.5 -113.5t-93.5 -107.5t-140 -76t-192.5 -30.5q-67 0 -123 15.5t-94.5 42.5t-69 63t-45.5 76t-25.5 82t-8.5 81.5zM286 327q1 -38 16.5 -64.5t34 -43.5t45.5 -26.5t50.5 -13t50.5 -3.5q35 0 72.5 9t83.5 32.5 t82.5 74.5t50.5 124q21 109 -35 172t-159 63q-104 0 -184 -63.5t-101 -171.5q-8 -51 -7 -89zM430 1063q-20 -101 32 -160t152 -59q101 0 175 59.5t94 159.5q13 55 3.5 93.5t-25.5 62.5t-45.5 37.5t-56 18.5t-57.5 5q-33 0 -69 -9t-79.5 -30t-77.5 -67t-46 -111z" />
<glyph unicode="9" horiz-adv-x="1048" d="M117 342q1 39 8 74h197q-15 -62 -7.5 -105.5t21.5 -70t41 -41.5t50.5 -20t49.5 -5q40 0 75.5 8.5t72 28.5t63 60.5t37.5 97.5l43 217q-38 -32 -102 -53t-121 -21q-67 0 -121.5 15t-91 40t-64 59t-42 70t-21.5 74.5t-6.5 72t6.5 62.5l35 187q10 51 29.5 99t57 100t88 90.5 t128.5 63.5t172 25q67 0 122 -14.5t92 -39t66 -57t43 -68.5t23.5 -72.5t7 -70t-5.5 -61.5l-141 -722q-10 -48 -25.5 -92.5t-50.5 -100t-81.5 -95.5t-123.5 -67.5t-172 -27.5q-66 0 -120.5 15.5t-92 42.5t-66 62.5t-44 75.5t-23 82.5t-6.5 81.5zM398 830.5q1 -32.5 14.5 -55 t29.5 -37t39.5 -22.5t43 -11t40.5 -3q33 0 68.5 8t78 28t75 63.5t44.5 105.5l33 172q6 43 5 75t-14.5 54t-28.5 35.5t-38 21.5t-42 10.5t-41 2.5q-25 0 -52 -3.5t-63 -16.5t-65.5 -33.5t-54.5 -58.5t-34 -87l-33 -172q-6 -44 -5 -76.5z" />
<glyph unicode=":" horiz-adv-x="557" d="M66 0l49 262h262l-49 -262h-262zM184 618l52 263h262l-52 -263h-262z" />
<glyph unicode=";" horiz-adv-x="587" d="M-121 -211l268 455h234l-303 -455h-199zM203 618l51 263h262l-51 -263h-262z" />
<glyph unicode="&#x3c;" d="M178 539l637 536h285l-654 -549l426 -526h-260z" />
<glyph unicode="=" horiz-adv-x="1216" d="M209 324l37 184h758l-37 -184h-758zM279 682l36 184h758l-37 -184h-757z" />
<glyph unicode="&#x3e;" horiz-adv-x="1120" d="M49 0l668 559l-414 516h252l432 -538l-647 -537h-291z" />
<glyph unicode="?" horiz-adv-x="907" d="M160 1040q10 52 28.5 103t57.5 112.5t90.5 107t133 76.5t179.5 31q179 0 274.5 -114t65.5 -297q-22 -133 -141 -240q-40 -37 -129 -101.5t-129 -99.5q-51 -45 -70 -137l-18 -96h-199l21 98q33 156 147 262q36 35 123 95.5t127 99.5q59 56 72 125q20 101 -24.5 156 t-147.5 55q-27 0 -52 -4t-58.5 -19t-60.5 -39.5t-52 -69t-38 -104.5h-200zM211 0l47 246h244l-47 -246h-244z" />
<glyph unicode="@" horiz-adv-x="1320" d="M115.5 -92.5q1.5 35.5 5.5 65.5l211 1090q9 44 27.5 91.5t59.5 106t96 103.5t142.5 75.5t192.5 30.5q75 0 136.5 -16t102.5 -42.5t72.5 -61.5t46.5 -73.5t25 -78t7.5 -74.5t-5.5 -63l-199 -1024h-184l10 51q-20 -20 -60 -35.5t-75 -15.5q-117 0 -186.5 76.5t-44.5 205.5 l71 373q27 136 116 209.5t204 73.5q39 0 75.5 -12.5t51.5 -30.5l24 127q10 65 0 108.5t-42.5 69.5t-70 36.5t-83.5 10.5q-45 0 -93 -12.5t-96.5 -38t-85.5 -73t-49 -109.5l-209 -1071q-12 -61 1 -104.5t47.5 -66t77 -32.5t97.5 -10l-34 -187q-70 0 -128.5 15t-98.5 39.5 t-71.5 57t-47.5 69t-27 74t-9.5 73zM682 328q-10 -53 13 -80t71 -27q111 0 131 107l70 362q10 50 -18.5 75.5t-76.5 25.5q-42 0 -76.5 -27t-45.5 -80z" />
<glyph unicode="A" horiz-adv-x="1140" d="M-39 0l664 1460h286l105 -1460h-195l-26 397h-441l-180 -397h-213zM440 594h342l-41 659z" />
<glyph unicode="B" horiz-adv-x="1134" d="M74 0l282 1460h430q70 0 126 -15t91.5 -39.5t61 -58.5t37.5 -69.5t16 -74.5q3 -29 4 -55v-16q-2 -32 -8 -63l-4 -25q-13 -71 -63.5 -157t-131.5 -137q41 -26 65 -67t32 -85q7 -42 7 -77q0 -37 -5 -75l-8 -49q-6 -36 -19.5 -74.5t-37 -85.5t-61 -87.5t-85.5 -75 t-117 -54.5t-149 -20h-463zM309 197h238q35 0 69 7.5t75 27t72.5 63t43.5 106.5l8 43q7 37 7 68q0 141 -154 141h-269zM436 850h242q184 0 229 199l4 18q6 33 6 60q0 137 -153 137h-248z" />
<glyph unicode="C" horiz-adv-x="1081" d="M122 322q2 36 5 65l135 690q9 44 27.5 91t57.5 103.5t91 99.5t133.5 72.5t178.5 29.5q67 0 123.5 -15t94.5 -41t68 -59.5t44.5 -71t24.5 -75.5q8 -32 8 -61v-12q-2 -34 -5 -63h-199q4 31 4 56q-1 10 -1 20q-2 32 -17.5 54.5t-33 37t-41.5 22t-43.5 10.5t-39.5 3 q-34 0 -71 -7.5t-81.5 -27.5t-79 -64t-46.5 -106l-133 -686q-5 -36 -5 -64q1 -7 1 -14q2 -33 17 -56.5t32 -38.5t41.5 -23.5t44.5 -11.5t41 -3q32 0 68.5 8.5t81 28.5t79.5 65t47 107h199q-9 -45 -28.5 -93.5t-59.5 -105.5t-92 -101t-133 -73.5t-177 -29.5q-68 0 -125 15.5 t-94.5 41.5t-67 60.5t-43.5 72.5t-24 76q-8 31 -8 60q1 7 1 14z" />
<glyph unicode="D" horiz-adv-x="1134" d="M74 0l282 1460h428q81 0 144 -20t100 -54.5t61 -75.5t32 -87t8 -85.5t-7 -74.5l-127 -662q-10 -47 -26.5 -93t-52.5 -104t-84 -101t-125.5 -73t-171.5 -30h-461zM309 197h234q34 0 68 8t73.5 28t70 63.5t42.5 106.5l127 654q6 45 6 78t-13.5 56t-28 37t-37 22t-41.5 11 t-40 3h-254z" />
<glyph unicode="E" horiz-adv-x="1060" d="M74 0l282 1460h811l-39 -196h-612l-76 -398h568l-39 -196h-568l-92 -473h613l-37 -197h-811z" />
<glyph unicode="F" horiz-adv-x="1040" d="M74 0l282 1460h811l-39 -196h-612l-76 -398h568l-39 -196h-568l-129 -670h-198z" />
<glyph unicode="G" d="M122 322q2 36 5 65l135 690q9 44 27.5 91t57.5 103.5t91 99.5t133.5 72.5t178.5 29.5q68 0 124 -14.5t94 -39.5t68 -58t45 -69.5t25 -75.5q8 -32 8 -62v-12q-2 -36 -6 -67h-201q4 30 4 55q0 11 -1 20q-2 32 -17 55t-32.5 37t-41 22t-43 11t-39.5 3q-34 0 -71 -8 t-81.5 -28t-79 -63.5t-46.5 -105.5l-133 -686q-5 -33 -5 -60q0 -9 1 -17q2 -33 17 -56.5t33 -38.5t42.5 -23.5t44.5 -12t41 -3.5q32 0 68.5 8.5t80.5 29.5t78.5 66t46.5 107l47 242h-252l39 196h451l-86 -440q-9 -45 -29 -93.5t-60 -105.5t-92.5 -101t-133 -73.5 t-175.5 -29.5q-68 0 -125 15.5t-94.5 41.5t-67 60.5t-43.5 72.5t-24 76q-8 31 -8 60q0 7 1 14z" />
<glyph unicode="H" horiz-adv-x="1183" d="M74 0l282 1460h199l-115 -596h475l115 596h199l-283 -1460h-198l129 668h-476l-129 -668h-198z" />
<glyph unicode="I" horiz-adv-x="512" d="M74 0l282 1460h199l-283 -1460h-198z" />
<glyph unicode="J" horiz-adv-x="944" d="M25 383h198q-6 -42 -6 -73q0 -18 2 -32q5 -40 29 -63t49.5 -31t58.5 -8q34 0 67 8.5t68 28.5t61.5 60.5t37.5 97.5l172 893h-420l39 196h618l-208 -1077q-37 -191 -151.5 -296t-295.5 -105q-180 0 -267 110q-62 79 -62 193q0 46 10 98z" />
<glyph unicode="K" horiz-adv-x="1093" d="M74 0l282 1460h199l-119 -618l559 618h240l-600 -676l326 -784h-220l-247 631l-127 -144l-95 -487h-198z" />
<glyph unicode="L" horiz-adv-x="987" d="M74 0l282 1460h199l-246 -1263h611l-37 -197h-809z" />
<glyph unicode="M" horiz-adv-x="1359" d="M74 0l282 1460h217l158 -719l430 719h244l-283 -1460h-198l198 1026l-364 -592h-152l-133 600l-201 -1034h-198z" />
<glyph unicode="N" horiz-adv-x="1165" d="M74 0l282 1460h207l246 -1052l205 1052h196l-282 -1460h-211l-244 1042l-201 -1042h-198z" />
<glyph unicode="O" d="M122 322q2 36 5 65l135 690q9 44 27.5 91t57.5 103.5t91 99.5t133.5 72.5t178.5 29.5q67 0 123.5 -15t94.5 -41t68 -59.5t44.5 -71t24.5 -75.5q8 -32 9 -61q0 -6 -1 -12q-2 -34 -5 -63l-135 -690q-9 -45 -28 -93.5t-58.5 -105.5t-91 -101t-132 -73.5t-176.5 -29.5 q-68 0 -125 15.5t-95 41.5t-68 60.5t-44.5 72.5t-24.5 76q-8 32 -8 63v11zM326 387q-6 -30 -5 -55q1 -29 7 -53q14 -45 45.5 -65.5t62.5 -29t64 -8.5q32 0 68.5 8.5t80.5 29t78.5 65.5t46.5 108l133 686q6 30 6 55q1 28 -7 52q-14 44 -45.5 63.5t-61.5 27t-62 7.5 q-34 0 -71 -7.5t-81.5 -27.5t-79 -64t-46.5 -106z" />
<glyph unicode="P" horiz-adv-x="1083" d="M74 0l282 1460h426q70 0 126.5 -15.5t93.5 -41t64 -60t40.5 -71t19.5 -76.5q4 -31 4 -58v-14q-2 -33 -8 -63l-18 -103q-9 -46 -25.5 -93t-53 -105t-84.5 -101t-126 -72.5t-172 -29.5h-264l-107 -557h-198zM418 754h229q27 0 53 4t60 17.5t61 35t50.5 60.5t33.5 90l19 96 q7 36 7 66q0 141 -159 141h-256z" />
<glyph unicode="Q" d="M122 321q-1 9 -1 17q0 27 6 49l135 690q9 44 27.5 91t57.5 103.5t91 99.5t133.5 72.5t178.5 29.5q67 0 123.5 -15t94.5 -41t68 -59.5t44.5 -71t24.5 -75.5q8 -32 8 -61v-12q-2 -34 -5 -63l-135 -690q-8 -42 -25 -86t-50.5 -97t-77 -96t-111.5 -76.5t-148 -43.5l-39 -199 h-184l39 207q-56 13 -100.5 39.5t-72 60t-47.5 73t-26.5 78.5t-8.5 76zM326 387q-6 -31 -6 -58q0 -104 96 -141l51 265h184l-51 -260q145 46 174 194l133 686q6 30 6 55q0 28 -7 52q-14 43 -45.5 63t-61.5 27.5t-62 7.5q-34 0 -71 -7.5t-81.5 -27.5t-79 -64t-46.5 -106z" />
<glyph unicode="R" horiz-adv-x="1148" d="M74 0l282 1460h428q70 0 127 -15.5t94 -40.5t63.5 -59.5t39.5 -70.5q14 -36 20 -76q5 -33 5 -62q0 -4 -1 -10q-1 -32 -6 -63l-12 -68q-8 -46 -27 -95t-54.5 -105t-97 -104t-140.5 -73l174 -618h-213l-154 596h-215l-115 -596h-198zM426 793h254q26 0 50.5 4t54.5 17 t53.5 34t44.5 59.5t32 89.5l13 60q7 42 7 73q0 36 -14 60q-13 23 -28.5 37.5t-38.5 22.5t-43 11t-43 3h-252z" />
<glyph unicode="S" horiz-adv-x="1073" d="M88 385h199q-6 -28 -5 -53q0 -60 34 -100q50 -56 153 -56q115 0 199.5 60t101.5 153q5 25 5 48q0 97 -85 153q-35 23 -80.5 49.5t-109.5 63t-107 61.5q-82 48 -122 140q-26 61 -26 127q0 35 7 73q32 166 161 267.5t310 101.5q189 -1 293 -113q78 -85 77 -202 q0 -39 -8 -81h-198q5 26 5 49q0 60 -34 99q-47 53 -145 53q-94 0 -170.5 -50.5t-93.5 -137.5q-4 -21 -4 -40q0 -82 77 -128q228 -128 285 -162q101 -62 143 -161q27 -63 28 -136q0 -41 -9 -86q-34 -174 -177 -284.5t-333 -110.5q-197 0 -301 115q-78 87 -78 206q0 39 8 82z " />
<glyph unicode="T" horiz-adv-x="978" d="M207 1264l39 196h889l-39 -196h-346l-244 -1264h-199l244 1264h-344z" />
<glyph unicode="U" d="M127 387l209 1073h199l-209 -1073q-4 -34 -5 -61q0 -9 1 -17q2 -33 17 -56.5t32.5 -38.5t42 -23.5t44.5 -11.5t40 -3q33 0 69.5 8.5t81 29t79 65.5t46.5 108l209 1073h199l-209 -1075q-9 -48 -28 -96.5t-57.5 -105.5t-90 -100t-132.5 -72t-178 -29q-70 0 -128 15 t-97 40.5t-68 59.5t-44 71q-14 37 -22 77q-7 38 -8 71q0 36 7 71z" />
<glyph unicode="V" horiz-adv-x="1105" d="M246 1460h198l60 -1261l553 1261h205l-646 -1460h-286z" />
<glyph unicode="W" horiz-adv-x="1619" d="M246 1460h200l7 -1102l471 1102h166l49 -1100l434 1100h203l-588 -1460h-203l-53 1047l-465 -1047h-201z" />
<glyph unicode="X" horiz-adv-x="1071" d="M-43 0l528 750l-227 710h211l162 -530l368 530h242l-528 -737l233 -723h-213l-160 526l-366 -526h-250z" />
<glyph unicode="Y" horiz-adv-x="1056" d="M246 1460h207l135 -669l399 669h225l-565 -932l-102 -528h-199l103 532z" />
<glyph unicode="Z" horiz-adv-x="942" d="M-27 0l31 170l782 1092h-540l37 198h776l-31 -166l-780 -1097h598l-39 -197h-834z" />
<glyph unicode="[" horiz-adv-x="661" d="M43 -158l328 1696h350l-35 -182h-166l-258 -1331h166l-35 -183h-350z" />
<glyph unicode="\" horiz-adv-x="1036" d="M373 1524h182l215 -1630h-180z" />
<glyph unicode="]" horiz-adv-x="661" d="M43 -158l35 183h166l258 1331h-166l35 182h350l-328 -1696h-350z" />
<glyph unicode="^" horiz-adv-x="1071" d="M231 897l412 563h162l186 -563h-198l-111 313l-225 -313h-226z" />
<glyph unicode="_" horiz-adv-x="1048" d="M-158 -307l35 174h1079l-34 -174h-1080z" />
<glyph unicode="`" horiz-adv-x="718" d="M387 1561h211l102 -347h-176z" />
<glyph unicode="a" horiz-adv-x="1062" d="M86 211q-5 26 -6 55q0 36 8 76q30 151 143.5 228t284.5 77h248l16 82q5 28 5 51q1 54 -29 80q-42 38 -131 39q-39 0 -69.5 -5t-63 -19.5t-55.5 -44.5t-36 -76h-196q25 92 73.5 160.5t109.5 105t122 53.5t125 17q58 0 111.5 -12t103 -39t81.5 -69q33 -42 47 -102 q7 -28 6 -59q0 -37 -9 -80l-141 -729h-195l14 82q-44 -47 -113 -73.5t-143 -26.5q-53 0 -103 14t-94 42.5t-73 71.5t-41 101zM283 338q-5 -26 -6 -48q1 -52 31 -80q42 -40 126 -40q89 0 174 60t103 149l18 94h-221q-91 0 -152 -36t-73 -99z" />
<glyph unicode="b" horiz-adv-x="1089" d="M74 0l282 1460h195l-88 -459q35 39 98.5 64t124.5 25q113 0 193.5 -47t116.5 -137q22 -55 21 -120q0 -42 -9 -88l-64 -323q-36 -180 -158.5 -287.5t-300.5 -107.5q-59 0 -120 28t-84 66l-13 -74h-194zM332.5 318q-1.5 -25 5 -54t23.5 -48.5t52.5 -32.5t86.5 -13 q93 0 162 56t88 149l63 323q6 32 7 56t-5.5 53t-22.5 47.5t-50.5 31.5t-84.5 13q-96 0 -166 -53.5t-88 -147.5l-63 -323q-6 -32 -7.5 -57z" />
<glyph unicode="c" horiz-adv-x="1042" d="M125 375l63 323q34 179 161 285.5t308 106.5q169 0 265 -100q84 -88 84 -231q0 -19 -2 -40h-199q0 38 -6 67t-22 56t-49 42t-81 15q-101 0 -173.5 -53.5t-90.5 -147.5l-64 -323q-7 -34 -6 -62q0 -143 168 -143q87 0 153 48.5t97 133.5h201q-56 -175 -177.5 -273.5 t-285.5 -98.5q-187 0 -283 108q-70 79 -70 196q0 43 9 91z" />
<glyph unicode="d" horiz-adv-x="1095" d="M125 375l63 323q35 181 159 286.5t298 105.5q67 0 128.5 -27t82.5 -62l88 459h195l-283 -1460h-194l12 66q-33 -33 -96 -59.5t-121 -26.5q-177 0 -271 110q-70 81 -70 198q0 41 9 87zM319 375q-6 -32 -7 -59q0 -56 27 -92q39 -54 142 -54q108 0 172 62t80 143l64 323 q6 28 6 53q0 57 -31 95q-44 54 -137 53q-62 0 -110 -18t-76 -49t-43.5 -64t-22.5 -70z" />
<glyph unicode="e" horiz-adv-x="1075" d="M125 375l63 323q34 180 160.5 286t315.5 106q182 0 278 -107q71 -79 71 -195q0 -42 -9 -90l-46 -231h-620l-19 -92q-6 -30 -6.5 -57t8 -55t27 -48t53.5 -32.5t84 -12.5q87 0 152 48.5t96 133.5h199q-56 -175 -177.5 -273.5t-289.5 -98.5q-183 0 -279 108q-70 79 -70 196 q0 43 9 91zM375 655h426l8 43q5 31 6 56t-6.5 53.5t-25.5 47.5t-54 31.5t-88 12.5q-97 0 -168.5 -54t-89.5 -147z" />
<glyph unicode="f" horiz-adv-x="681" d="M123 885l39 190h176l14 80q55 305 350 305h125l-36 -190h-123q-37 0 -72.5 -24t-46.5 -77l-17 -94h242l-39 -190h-241l-170 -885h-195l170 885h-176z" />
<glyph unicode="g" horiz-adv-x="1091" d="M45 -168h203q8 -55 46.5 -88t98.5 -33q205 0 248 209l29 146q-37 -36 -96.5 -61t-122.5 -25q-177 0 -269 108q-67 78 -67 194q0 44 10 93l63 323q34 179 158 285.5t301 106.5q60 0 120.5 -25t84.5 -57l14 67h195l-225 -1155q-73 -383 -455 -383q-144 0 -239.5 79.5 t-96.5 215.5zM319 375q-7 -34 -7 -62q0 -143 169 -143q92 0 160.5 56t87.5 149l64 323q5 31 6 56t-6 53t-23.5 47.5t-50.5 32t-82 12.5q-101 0 -168 -53t-86 -148z" />
<glyph unicode="h" horiz-adv-x="1103" d="M74 0l282 1460h195l-86 -446q104 76 233 76q188 0 268 -104q56 -72 55 -181q0 -49 -11 -107l-136 -698h-194l135 698q6 34 8 56.5t-2 52.5t-18.5 48t-46.5 31t-80 13q-95 0 -175.5 -56t-97.5 -141l-135 -702h-194z" />
<glyph unicode="i" horiz-adv-x="538" d="M90 0l209 1075h195l-209 -1075h-195zM313 1217l49 249h220l-50 -249h-219z" />
<glyph unicode="j" horiz-adv-x="514" d="M-178 -463l37 191h61q39 0 70 21.5t39 68.5l245 1257h195l-244 -1247q-29 -149 -113 -220t-200 -71h-90zM289 1217l49 249h219l-49 -249h-219z" />
<glyph unicode="k" horiz-adv-x="1067" d="M74 0l282 1460h195l-164 -842l506 457h264l-528 -473l276 -602h-211l-207 471l-153 -135l-66 -336h-194z" />
<glyph unicode="l" horiz-adv-x="532" d="M121 289l227 1171h195l-230 -1179q-3 -15 -3 -28q0 -63 67 -63h76l-37 -190h-78q-120 0 -183 72q-43 49 -43 132q0 39 9 85z" />
<glyph unicode="m" horiz-adv-x="1511" d="M74 0l209 1075h194l-12 -57q57 36 106.5 54t110.5 18q144 0 203 -111q130 111 299 111q66 0 116 -19.5t77.5 -52t44.5 -74.5q17 -40 16.5 -83t-6.5 -91l-150 -770h-192l145 756q7 39 7.5 71t-25 52t-78.5 20q-191 0 -234 -223l-131 -676h-192l145 750q6 39 6 72.5t-24 55 t-74 21.5q-194 0 -236 -225l-131 -674h-194z" />
<glyph unicode="n" horiz-adv-x="1103" d="M74 0l209 1075h194l-12 -61q109 76 233 76q186 0 267 -104q56 -72 56 -182q0 -49 -11 -106l-136 -698h-194l135 698q7 34 9.5 56.5t-1.5 52.5t-18.5 48t-47 31t-81.5 13q-95 0 -175.5 -56t-97.5 -141l-135 -702h-194z" />
<glyph unicode="o" horiz-adv-x="1085" d="M125 375l63 323q34 179 162 285.5t309 106.5q186 0 283 -106q71 -78 71 -196q0 -42 -9 -90l-64 -323q-35 -179 -165 -287t-310 -108q-187 0 -281 108q-69 78 -68 195q0 43 9 92zM313 304q4 -36 17.5 -66t52.5 -49t100 -19q99 0 171 56t91 149l64 323q5 31 5 57 q0 144 -169 144q-101 0 -172 -53.5t-90 -147.5l-64 -323q-7 -25 -7 -51q0 -10 1 -20z" />
<glyph unicode="p" horiz-adv-x="1091" d="M-16 -463l299 1538h194l-14 -69q40 37 99 60.5t122 23.5q182 0 271 -107q64 -77 64 -192q0 -44 -9 -93l-64 -323q-35 -185 -156 -290t-301 -105q-64 0 -127 28.5t-81 61.5l-103 -533h-194zM340 375q-6 -29 -6 -54q0 -57 30 -95q42 -56 134 -56q63 0 111 18.5t76 50 t43.5 65t23.5 71.5l63 323q7 34 7 62q0 139 -165 139q-112 0 -176 -60.5t-78 -140.5z" />
<glyph unicode="q" horiz-adv-x="1091" d="M127 377l61 321q34 179 159 285.5t306 106.5q55 0 112.5 -18t90.5 -48l10 51h195l-299 -1538h-195l103 526q-32 -33 -91 -58t-128 -25q-181 0 -270 108q-64 78 -64 193q0 45 10 96zM319 375q-7 -34 -7 -63q0 -142 165 -142q96 0 164.5 56t87.5 149l64 323q6 31 6 58 q0 143 -164 143q-98 0 -165.5 -53.5t-86.5 -147.5z" />
<glyph unicode="r" horiz-adv-x="671" d="M74 0l209 1075h194l-20 -96q30 45 81 70.5t115 25.5h90l-38 -190h-99q-62 0 -124.5 -53t-82.5 -156l-131 -676h-194z" />
<glyph unicode="s" horiz-adv-x="1001" d="M80 352h196q-2 -18 -3 -34q0 -64 39 -100q48 -46 147 -46q55 0 103 13.5t86.5 47.5t47.5 84q2 11 2 22q0 68 -90 97q-46 15 -127 38t-112 32q-104 31 -158 103q-39 52 -39 123q0 28 6 59q15 77 56 135.5t100 93t129 51t149 16.5q167 0 263 -91q82 -77 81 -206 q0 -23 -2 -47h-196q1 14 1 27q1 62 -31 92q-38 38 -140 37q-46 0 -89.5 -11t-81.5 -40t-46 -72q-2 -9 -2 -18q0 -58 84 -84q32 -10 123 -35t135 -41q94 -34 147 -110q38 -56 38 -127q0 -27 -5 -56q-18 -89 -62 -153.5t-107.5 -100t-135 -51.5t-156.5 -16q-174 0 -274 100 q-80 80 -81 205q0 30 5 63z" />
<glyph unicode="t" horiz-adv-x="737" d="M123 885l39 190h194l74 385h195l-74 -385h223l-39 -190h-223l-117 -604q-2 -14 -2 -26q-1 -29 13 -43q20 -22 57 -22h143l-37 -190h-141q-124 0 -189 72q-45 49 -45 134q0 38 9 83l114 596h-194z" />
<glyph unicode="u" horiz-adv-x="1110" d="M137 375l137 700h195l-137 -700q-6 -32 -8 -57t4.5 -53.5t23.5 -48t51.5 -32t85.5 -12.5q90 0 164.5 54t91.5 139l140 710h194l-209 -1075h-194l12 70q-40 -36 -99 -62t-122 -26q-181 0 -273 107q-66 77 -67 192q0 44 10 94z" />
<glyph unicode="v" horiz-adv-x="942" d="M162 1075h196l72 -842l391 842h213l-512 -1075h-266z" />
<glyph unicode="w" horiz-adv-x="1413" d="M203 1075h198l21 -741l323 741h166l37 -741l316 741h200l-460 -1075h-203l-39 713l-313 -713h-201z" />
<glyph unicode="x" horiz-adv-x="983" d="M-53 0l454 551l-231 524h209l158 -373l305 373h241l-469 -543l242 -532h-211l-158 371l-299 -371h-241z" />
<glyph unicode="y" horiz-adv-x="929" d="M-49 -463l37 193h116q49 0 80.5 19t55.5 69l82 182h-68l-92 1075h205l61 -839l385 839h209l-586 -1274q-32 -70 -63.5 -117t-63.5 -76.5t-74.5 -45t-85 -20.5t-106.5 -5h-92z" />
<glyph unicode="z" horiz-adv-x="915" d="M-6 0l31 164l622 721h-467l39 190h707l-33 -164l-623 -721h525l-37 -190h-764z" />
<glyph unicode="{" horiz-adv-x="659" d="M96 125l226 1157q52 258 301 258h98l-37 -182h-76q-87 0 -104 -92l-219 -1125q-12 -40 -1.5 -66t56.5 -26h90l-35 -182h-78q-127 0 -186 65.5t-35 192.5z" />
<glyph unicode="|" horiz-adv-x="495" d="M51 -106l320 1634h184l-319 -1634h-185z" />
<glyph unicode="}" horiz-adv-x="665" d="M47 -135l35 182h78q50 0 75 23t35 69l217 1125q12 43 0.5 67.5t-59.5 24.5h-92l35 182h78q137 0 195 -61.5t32 -194.5l-225 -1161q-26 -136 -96.5 -196t-204.5 -60h-103z" />
<glyph unicode="~" horiz-adv-x="1136" d="M176 532q114 96 170.5 126t118.5 30q53 0 139.5 -45t132.5 -45q28 0 60.5 22t95.5 78l117 -123q-120 -96 -175 -124.5t-118 -28.5q-53 0 -140.5 44t-134.5 44q-29 0 -58.5 -19.5t-96.5 -78.5z" />
<glyph unicode="&#xa1;" horiz-adv-x="557" d="M29 -354l209 1075h194l-209 -1075h-194zM240 860l47 246h245l-47 -246h-245z" />
<glyph unicode="&#xa2;" horiz-adv-x="1042" d="M125 375l63 323q29 158 133 260t257 125l53 271h184l-53 -277q123 -28 187.5 -121.5t54.5 -236.5h-199q0 38 -6 67t-22 56t-49 42t-81 15q-101 0 -173.5 -53.5t-90.5 -147.5l-64 -323q-40 -205 162 -205q87 0 153 48.5t97 133.5h201q-50 -153 -149 -248t-234 -118 l-51 -267h-185l52 271q-139 28 -204.5 130.5t-35.5 254.5z" />
<glyph unicode="&#xa3;" horiz-adv-x="1044" d="M86 0l127 659h-72l37 193h72l49 242q34 171 153.5 272.5t292.5 101.5q174 0 269 -108.5t61 -276.5h-194q6 42 5.5 72t-13.5 51.5t-27.5 35t-36 21t-40.5 10.5t-40 3q-34 0 -67 -8t-68 -27.5t-62 -59.5t-38 -96l-48 -233h388l-37 -193h-387l-91 -464h582l-37 -195h-778z " />
<glyph unicode="&#xa5;" horiz-adv-x="1105" d="M139 207l35 180h270l23 111h-270l34 180h209l-170 782h207l135 -669l400 669h225l-475 -782h211l-35 -180h-272l-23 -111h272l-34 -180h-273l-39 -207h-198l39 207h-271z" />
<glyph unicode="&#xa6;" horiz-adv-x="495" d="M57 -53l131 669h195l-131 -669h-195zM225 805l129 668h195l-129 -668h-195z" />
<glyph unicode="&#xa7;" horiz-adv-x="1134" d="M137 336h195q-17 -88 23 -124t139 -36q43 0 81.5 6.5t76.5 22t64.5 47t35.5 76.5q6 45 -12 74t-52 38q-11 3 -285 66q-93 21 -140 94.5t-27 179.5q22 113 102 181q-41 61 -25 155q20 105 86 177.5t153.5 104.5t190.5 32q177 0 277.5 -95t69.5 -258h-191q14 77 -25 118.5 t-145 41.5q-48 0 -93 -10t-86 -41.5t-50 -79.5q-5 -36 13.5 -63.5t53.5 -36.5q27 -7 275 -62q102 -24 154.5 -100t31.5 -187q-20 -98 -96 -184q30 -77 14 -154q-22 -115 -93.5 -192.5t-163 -110t-200.5 -32.5q-182 0 -282.5 94.5t-69.5 257.5zM420 768q-6 -32 12.5 -55.5 t56.5 -34.5q60 -16 277 -64q27 -5 43 -16q23 32 31 70q7 37 -15 63.5t-59 36.5q-17 5 -123.5 29.5t-185.5 46.5q-29 -42 -37 -76z" />
<glyph unicode="&#xa8;" horiz-adv-x="940" d="M313 1245l47 244h211l-47 -244h-211zM735 1245l47 244h211l-47 -244h-211z" />
<glyph unicode="&#xa9;" horiz-adv-x="1738" d="M211 713q0 196 96.5 363t262.5 264.5t362 97.5t362 -97.5t262.5 -264.5t96.5 -363t-96.5 -363t-262.5 -264.5t-362 -97.5t-362 97.5t-262.5 264.5t-96.5 363zM391 713q0 -151 70 -277.5t193.5 -201t273.5 -74.5q112 0 213.5 44t174 118t115 176t42.5 215t-42.5 215 t-115 176t-174 118t-213.5 44q-150 0 -273.5 -74.5t-193.5 -201t-70 -277.5zM670 522v363q0 27 5.5 56t22.5 64t43 61.5t72 45t105 18.5q60 0 106 -18.5t72 -45.5t43 -62.5t22.5 -64.5t5.5 -56h-178q0 23 -7 38.5t-19 22t-22 8.5t-23 2q-28 0 -50 -15.5t-22 -57.5v-357 q0 -42 22.5 -58.5t49.5 -16.5q71 0 71 73h178q0 -28 -5.5 -57t-23 -65t-44 -63.5t-73.5 -46t-108 -18.5q-58 0 -103.5 18.5t-71 46t-41.5 63.5t-21.5 65t-5.5 57z" />
<glyph unicode="&#xaa;" horiz-adv-x="845" d="M246 940q19 101 97 152t189 51h160l8 41q11 59 -11.5 83.5t-76.5 24.5q-109 0 -145 -108h-148q38 125 119.5 186.5t182.5 61.5q48 0 91.5 -13.5t79 -40.5t51.5 -76.5t3 -113.5l-94 -492h-146l8 49q-29 -28 -73 -44.5t-88 -16.5q-101 0 -166 67t-41 189zM389 928 q-20 -105 90 -105q63 0 112.5 34.5t61.5 90.5l13 58h-142q-49 0 -88.5 -20t-46.5 -58z" />
<glyph unicode="&#xab;" horiz-adv-x="1009" d="M76 539l530 446l-53 -278l-225 -191l151 -188l-45 -234zM453 539l530 446l-53 -278l-225 -191l151 -188l-45 -234z" />
<glyph unicode="&#xac;" horiz-adv-x="1146" d="M190 649l37 191h852l-98 -510h-197l62 319h-656z" />
<glyph unicode="&#xad;" horiz-adv-x="1185" d="M166 483l37 185h874l-37 -185h-874z" />
<glyph unicode="&#xae;" horiz-adv-x="1738" d="M211 713q0 196 96.5 363t262.5 264.5t362 97.5t362 -97.5t262.5 -264.5t96.5 -363t-96.5 -363t-262.5 -264.5t-362 -97.5t-362 97.5t-262.5 264.5t-96.5 363zM391 713q0 -151 70 -277.5t193.5 -201t273.5 -74.5q112 0 213.5 44t174 118t115 176t42.5 215t-42.5 215 t-115 176t-174 118t-213.5 44q-150 0 -273.5 -74.5t-193.5 -201t-70 -277.5zM694 276v836h267q60 0 106 -18t71.5 -45t42 -62t22 -63.5t5.5 -55.5v-45q0 -27 -6 -56t-20.5 -63t-45 -63.5t-73.5 -46.5l160 -318h-197l-152 302h-6v-302h-174zM868 750h95q28 0 49.5 15.5 t21.5 57.5v41q0 41 -22.5 57.5t-50.5 16.5h-93v-188z" />
<glyph unicode="&#xaf;" horiz-adv-x="954" d="M328 1272l32 166h625l-33 -166h-624z" />
<glyph unicode="&#xb0;" horiz-adv-x="684" d="M244 1206q0 104 75 179t179 75t179 -75t75 -179t-75 -179t-179 -75t-179 75t-75 179zM379 1206q0 -50 34.5 -84.5t84.5 -34.5q49 0 83.5 34.5t34.5 84.5t-34.5 84.5t-83.5 34.5q-50 0 -84.5 -34.5t-34.5 -84.5z" />
<glyph unicode="&#xb1;" horiz-adv-x="1153" d="M66 0l34 184h858l-34 -184h-858zM160 485l35 185h335l60 303h186l-59 -303h336l-35 -185h-336l-47 -233h-186l47 233h-336z" />
<glyph unicode="&#xb2;" horiz-adv-x="757" d="M203 696l30 168q23 116 140 185q35 21 89.5 50.5t81 44.5t50.5 38t29 47q8 41 -8 64.5t-56 23.5t-71.5 -32.5t-41.5 -90.5h-147q24 120 97.5 194t176.5 74q104 0 160 -66t37 -167q-11 -56 -39 -94t-74 -72q-59 -40 -114 -66q-153 -74 -164 -139l-4 -14h315l-26 -148h-461 z" />
<glyph unicode="&#xb3;" horiz-adv-x="753" d="M245 886.5q1 35.5 5 67.5h145q-15 -66 6 -93t56 -27q84 0 98 77l8 45q8 44 -11.5 60t-47.5 16h-88l22 107l148 168h-238l27 145h418l-23 -123l-164 -180q43 -12 69.5 -44.5t33 -69t0.5 -74.5l-9 -50q-4 -26 -13.5 -53t-29.5 -59t-47.5 -56t-71.5 -40.5t-98 -16.5 q-50 0 -89 18t-59.5 47t-34 64.5t-12.5 71z" />
<glyph unicode="&#xb4;" horiz-adv-x="716" d="M311 1214l238 347h231l-272 -347h-197z" />
<glyph unicode="&#xb5;" d="M-16 -463l299 1538h194l-137 -700q-4 -28 -5.5 -56.5t8 -55t27 -46.5t51 -32.5t79.5 -12.5q89 0 163 54t91 139l139 710h194l-208 -1075h-195l12 70q-28 -27 -51 -43t-66.5 -30.5t-97.5 -14.5q-66 0 -121.5 27t-78.5 59l-103 -531h-194z" />
<glyph unicode="&#xb6;" horiz-adv-x="1097" d="M127 1104q34 174 147 251t301 77h512l-276 -1432h-199l240 1233h-158l-239 -1233h-199l143 748q-150 9 -224.5 114t-47.5 242z" />
<glyph unicode="&#xb7;" horiz-adv-x="565" d="M154 416l49 256h254l-49 -256h-254z" />
<glyph unicode="&#xb8;" horiz-adv-x="667" d="M-31 -434l271 346h192l-242 -346h-221z" />
<glyph unicode="&#xb9;" horiz-adv-x="722" d="M201 696l26 146h138l90 463l-103 -11l29 146l250 20l-121 -618h145l-26 -146h-428z" />
<glyph unicode="&#xba;" horiz-adv-x="849" d="M248 948l43 213q23 124 108 196.5t207 72.5q128 0 195.5 -73t44.5 -196l-43 -213q-23 -125 -108.5 -196.5t-209.5 -71.5q-128 0 -194 72t-43 196zM391 904.5q2 -22.5 9 -40.5t31 -29.5t63 -11.5q61 0 105 33.5t56 91.5l43 213q22 125 -100 125q-63 0 -106.5 -33 t-53.5 -92l-43 -213q-6 -21 -4 -43.5z" />
<glyph unicode="&#xbb;" horiz-adv-x="1009" d="M72 98l53 279l227 188l-153 189l45 233l356 -446zM451 98l53 279l227 188l-153 189l45 233l356 -446z" />
<glyph unicode="&#xbc;" horiz-adv-x="1458" d="M201 696l26 146h142l90 463l-107 -11l29 146l254 20l-121 -618h141l-26 -146h-428zM297 -104l862 1652h150l-858 -1652h-154zM815 193l23 114l256 453h149l-235 -422h141l49 256h145l-114 -594h-146l37 193h-305z" />
<glyph unicode="&#xbd;" horiz-adv-x="1521" d="M201 696l26 146h140l90 463l-103 -9l27 144l252 20l-121 -618h143l-26 -146h-428zM299 -104l862 1652h150l-858 -1652h-154zM829 0l31 168q23 116 139 184q35 21 89.5 50.5t81 44.5t50.5 38t29 47q8 41 -7.5 65t-55.5 24t-71.5 -32.5t-41.5 -90.5h-147q24 120 97.5 194 t176.5 74q104 0 160 -66.5t37 -167.5q-11 -56 -39 -93t-74 -72q-57 -39 -115 -66q-152 -74 -163 -139l-5 -15h316l-27 -147h-461z" />
<glyph unicode="&#xbe;" horiz-adv-x="1478" d="M245 886.5q1 35.5 5 67.5h145q-15 -66 6 -93t56 -27q84 0 98 77l8 45q8 44 -11.5 60t-47.5 16h-88l22 107l148 168h-238l27 145h418l-23 -123l-164 -180q43 -12 69.5 -44.5t33 -69t0.5 -74.5l-9 -50q-4 -26 -13.5 -53t-29.5 -59t-47.5 -56t-71.5 -40.5t-98 -16.5 q-50 0 -89 18t-59.5 47t-34 64.5t-12.5 71zM311 -104l863 1652h149l-858 -1652h-154zM836 193l22 114l256 453h150l-236 -422h141l50 256h145l-115 -594h-145l37 193h-305z" />
<glyph unicode="&#xbf;" horiz-adv-x="866" d="M-37 29q22 132 141 239q40 37 129 101.5t129 99.5q51 45 70 137l19 96h198l-20 -98q-17 -82 -58 -149t-90 -113q-36 -35 -123 -95.5t-127 -99.5q-58 -55 -71 -124q-20 -101 24.5 -156t147.5 -55q27 0 52 4t58.5 18.5t60 39t51.5 69t38 104.5h201q-10 -51 -28.5 -102.5 t-57.5 -113t-90.5 -107t-133.5 -76.5t-180 -31q-178 0 -274.5 114.5t-65.5 297.5zM451 842l47 245h243l-47 -245h-243z" />
<glyph unicode="&#xc0;" horiz-adv-x="1140" d="M-39 0l664 1460h286l105 -1460h-195l-26 397h-441l-180 -397h-213zM440 594h342l-41 659zM590 1944h211l102 -347h-176z" />
<glyph unicode="&#xc1;" horiz-adv-x="1140" d="M-39 0l664 1460h286l105 -1460h-195l-26 397h-441l-180 -397h-213zM440 594h342l-41 659zM657 1597l238 347h231l-272 -347h-197z" />
<glyph unicode="&#xc2;" horiz-adv-x="1140" d="M-39 0l664 1460h286l105 -1460h-195l-26 397h-441l-180 -397h-213zM440 594h342l-41 659zM492 1597l288 330h160l160 -330h-172l-90 162l-156 -162h-190z" />
<glyph unicode="&#xc3;" horiz-adv-x="1140" d="M-39 0l664 1460h286l105 -1460h-195l-26 397h-441l-180 -397h-213zM440 594h342l-41 659zM479 1724q92 77 144.5 102t95.5 25q42 0 115.5 -39.5t101.5 -39.5q41 0 125 69l98 -119q-92 -76 -142.5 -100.5t-92.5 -24.5q-43 0 -117.5 41t-101.5 41q-42 0 -130 -71z" />
<glyph unicode="&#xc4;" horiz-adv-x="1140" d="M-39 0l664 1460h286l105 -1460h-195l-26 397h-441l-180 -397h-213zM440 594h342l-41 659zM481 1597l47 244h211l-47 -244h-211zM903 1597l47 244h211l-47 -244h-211z" />
<glyph unicode="&#xc5;" horiz-adv-x="1140" d="M-39 0l664 1460h286l105 -1460h-195l-26 397h-441l-180 -397h-213zM440 594h342l-41 659zM592 1749q18 95 90 159t176 64q96 0 156 -72t41 -167q-18 -95 -89.5 -159.5t-174.5 -64.5q-92 0 -154.5 73t-44.5 167zM725 1741q-8 -40 15.5 -70.5t62.5 -30.5q47 0 79 29.5 t40 71.5q8 40 -15.5 70t-62.5 30q-47 0 -79 -29t-40 -71z" />
<glyph unicode="&#xc6;" horiz-adv-x="1607" d="M-39 0l664 1460h1089l-39 -196h-612l-76 -398h563l-39 -196h-563l-92 -473h612l-36 -197h-811l75 397h-344l-180 -397h-211zM440 594h295l129 670h-119z" />
<glyph unicode="&#xc7;" horiz-adv-x="1081" d="M94 -434l271 346h192l-242 -346h-221zM121.5 322.5q2.5 35.5 5.5 64.5l135 690q9 44 27.5 91t57.5 103.5t91 99.5t133.5 72.5t178.5 29.5q67 0 123.5 -15t94.5 -41t68 -59.5t44.5 -71t24.5 -75.5t8 -72.5t-5 -63.5h-199q6 44 3.5 76t-18 54.5t-33 37t-41.5 22t-43.5 10.5 t-39.5 3q-34 0 -71 -7.5t-81.5 -27.5t-79 -64t-46.5 -106l-133 -686q-6 -45 -4.5 -78t17 -56.5t32.5 -38.5t41.5 -23.5t44.5 -11.5t41 -3q32 0 68.5 8.5t81 28.5t79.5 65t47 107h199q-9 -45 -28.5 -93.5t-59.5 -105.5t-92 -101t-133 -73.5t-177 -29.5q-68 0 -125 15.5 t-94.5 41.5t-67 60.5t-43.5 72.5t-24 76.5t-7.5 74z" />
<glyph unicode="&#xc8;" horiz-adv-x="1060" d="M74 0l282 1460h811l-39 -196h-612l-76 -398h568l-39 -196h-568l-92 -473h613l-37 -197h-811zM612 1944h211l103 -347h-176z" />
<glyph unicode="&#xc9;" horiz-adv-x="1060" d="M74 0l282 1460h811l-39 -196h-612l-76 -398h568l-39 -196h-568l-92 -473h613l-37 -197h-811zM639 1597l238 347h231l-272 -347h-197z" />
<glyph unicode="&#xca;" horiz-adv-x="1060" d="M74 0l282 1460h811l-39 -196h-612l-76 -398h568l-39 -196h-568l-92 -473h613l-37 -197h-811zM451 1597l288 330h160l160 -330h-172l-90 162l-156 -162h-190z" />
<glyph unicode="&#xcb;" horiz-adv-x="1060" d="M74 0l282 1460h811l-39 -196h-612l-76 -398h568l-39 -196h-568l-92 -473h613l-37 -197h-811zM440 1597l47 244h211l-47 -244h-211zM862 1597l47 244h211l-47 -244h-211z" />
<glyph unicode="&#xcc;" horiz-adv-x="512" d="M74 0l282 1460h199l-283 -1460h-198zM256 1944h211l102 -347h-176z" />
<glyph unicode="&#xcd;" horiz-adv-x="512" d="M74 0l282 1460h199l-283 -1460h-198zM385 1597l238 347h231l-272 -347h-197z" />
<glyph unicode="&#xce;" horiz-adv-x="512" d="M74 0l282 1460h199l-283 -1460h-198zM180 1597l289 330h160l159 -330h-172l-90 162l-155 -162h-191z" />
<glyph unicode="&#xcf;" horiz-adv-x="512" d="M74 0l282 1460h199l-283 -1460h-198zM170 1597l47 244h211l-47 -244h-211zM592 1597l47 244h211l-47 -244h-211z" />
<glyph unicode="&#xd0;" horiz-adv-x="1206" d="M109 672l36 186h154l117 602h430q70 0 126 -15.5t93 -41t63 -60t39 -71t18.5 -76t4 -72.5t-7.5 -63l-127 -660q-9 -46 -26 -93t-53.5 -104.5t-85 -101t-126.5 -73t-172 -29.5h-459l129 672h-153zM369 197h237q26 0 52 4t58.5 17.5t58.5 35t48.5 60t32.5 89.5l127 652 q13 54 4.5 91t-22.5 60t-40.5 36t-49 17.5t-48.5 4.5h-252l-77 -406h256l-37 -186h-256z" />
<glyph unicode="&#xd1;" horiz-adv-x="1165" d="M74 0l282 1460h207l246 -1052l205 1052h196l-282 -1460h-211l-244 1042l-201 -1042h-198zM492 1724q93 78 144.5 102.5t94.5 24.5q42 0 115.5 -39.5t101.5 -39.5q41 0 125 69l98 -119q-92 -76 -142.5 -100.5t-92.5 -24.5q-43 0 -117.5 41t-101.5 41q-41 0 -129 -71z" />
<glyph unicode="&#xd2;" d="M122 322.5q2 35.5 5 64.5l135 690q9 44 27.5 91t57.5 103.5t91 99.5t133.5 72.5t178.5 29.5q67 0 123.5 -15t94.5 -41t68 -59.5t44.5 -71t24.5 -75.5t8 -72.5t-5 -63.5l-135 -690q-9 -45 -28 -93.5t-58.5 -105.5t-91 -101t-132 -73.5t-176.5 -29.5q-68 0 -125 15.5 t-95 41.5t-68 60.5t-44.5 72.5t-24.5 76.5t-8 74zM326 387q-12 -63 1.5 -108t45.5 -65.5t63 -29t64 -8.5q32 0 68.5 8.5t80.5 29t78.5 65.5t46.5 108l133 686q12 63 -1.5 106.5t-45 63.5t-61.5 27.5t-62 7.5q-34 0 -71 -7.5t-81.5 -27.5t-79 -64t-46.5 -106zM598 1944h211 l102 -347h-176z" />
<glyph unicode="&#xd3;" d="M122 322.5q2 35.5 5 64.5l135 690q9 44 27.5 91t57.5 103.5t91 99.5t133.5 72.5t178.5 29.5q67 0 123.5 -15t94.5 -41t68 -59.5t44.5 -71t24.5 -75.5t8 -72.5t-5 -63.5l-135 -690q-9 -45 -28 -93.5t-58.5 -105.5t-91 -101t-132 -73.5t-176.5 -29.5q-68 0 -125 15.5 t-95 41.5t-68 60.5t-44.5 72.5t-24.5 76.5t-8 74zM326 387q-12 -63 1.5 -108t45.5 -65.5t63 -29t64 -8.5q32 0 68.5 8.5t80.5 29t78.5 65.5t46.5 108l133 686q12 63 -1.5 106.5t-45 63.5t-61.5 27.5t-62 7.5q-34 0 -71 -7.5t-81.5 -27.5t-79 -64t-46.5 -106zM645 1597 l238 347h231l-272 -347h-197z" />
<glyph unicode="&#xd4;" d="M122 322.5q2 35.5 5 64.5l135 690q9 44 27.5 91t57.5 103.5t91 99.5t133.5 72.5t178.5 29.5q67 0 123.5 -15t94.5 -41t68 -59.5t44.5 -71t24.5 -75.5t8 -72.5t-5 -63.5l-135 -690q-9 -45 -28 -93.5t-58.5 -105.5t-91 -101t-132 -73.5t-176.5 -29.5q-68 0 -125 15.5 t-95 41.5t-68 60.5t-44.5 72.5t-24.5 76.5t-8 74zM326 387q-12 -63 1.5 -108t45.5 -65.5t63 -29t64 -8.5q32 0 68.5 8.5t80.5 29t78.5 65.5t46.5 108l133 686q12 63 -1.5 106.5t-45 63.5t-61.5 27.5t-62 7.5q-34 0 -71 -7.5t-81.5 -27.5t-79 -64t-46.5 -106zM479 1597 l289 330h160l159 -330h-172l-90 162l-155 -162h-191z" />
<glyph unicode="&#xd5;" d="M122 322.5q2 35.5 5 64.5l135 690q9 44 27.5 91t57.5 103.5t91 99.5t133.5 72.5t178.5 29.5q67 0 123.5 -15t94.5 -41t68 -59.5t44.5 -71t24.5 -75.5t8 -72.5t-5 -63.5l-135 -690q-9 -45 -28 -93.5t-58.5 -105.5t-91 -101t-132 -73.5t-176.5 -29.5q-68 0 -125 15.5 t-95 41.5t-68 60.5t-44.5 72.5t-24.5 76.5t-8 74zM326 387q-12 -63 1.5 -108t45.5 -65.5t63 -29t64 -8.5q32 0 68.5 8.5t80.5 29t78.5 65.5t46.5 108l133 686q12 63 -1.5 106.5t-45 63.5t-61.5 27.5t-62 7.5q-34 0 -71 -7.5t-81.5 -27.5t-79 -64t-46.5 -106zM467 1724 q92 77 144.5 102t95.5 25q42 0 115.5 -39.5t101.5 -39.5q41 0 125 69l98 -119q-92 -75 -143 -100t-93 -25q-43 0 -117.5 41t-101.5 41q-41 0 -129 -71z" />
<glyph unicode="&#xd6;" d="M122 322.5q2 35.5 5 64.5l135 690q9 44 27.5 91t57.5 103.5t91 99.5t133.5 72.5t178.5 29.5q67 0 123.5 -15t94.5 -41t68 -59.5t44.5 -71t24.5 -75.5t8 -72.5t-5 -63.5l-135 -690q-9 -45 -28 -93.5t-58.5 -105.5t-91 -101t-132 -73.5t-176.5 -29.5q-68 0 -125 15.5 t-95 41.5t-68 60.5t-44.5 72.5t-24.5 76.5t-8 74zM326 387q-12 -63 1.5 -108t45.5 -65.5t63 -29t64 -8.5q32 0 68.5 8.5t80.5 29t78.5 65.5t46.5 108l133 686q12 63 -1.5 106.5t-45 63.5t-61.5 27.5t-62 7.5q-34 0 -71 -7.5t-81.5 -27.5t-79 -64t-46.5 -106zM469 1597 l47 244h211l-47 -244h-211zM891 1597l47 244h211l-47 -244h-211z" />
<glyph unicode="&#xd7;" horiz-adv-x="1191" d="M186 305l308 256l-197 246l141 119l195 -244l309 260l119 -145l-309 -258l198 -248l-143 -119l-199 246l-305 -254z" />
<glyph unicode="&#xd8;" d="M0 -111l164 248q-62 111 -37 250l135 688q8 43 28.5 91t61 103.5t94.5 99t136.5 72.5t179.5 29q144 0 237 -73l103 153h112l-151 -227q35 -59 45.5 -131.5t-2.5 -118.5l-133 -688q-7 -36 -23.5 -76t-43.5 -87t-68.5 -88.5t-92.5 -76t-122 -55t-152 -20.5q-156 0 -246 77 l-110 -170h-115zM324 379l557 838q-49 59 -156 59q-34 0 -69 -7.5t-77.5 -27.5t-75 -63.5t-44.5 -106.5l-133 -684zM346 242q51 -66 164 -66q32 0 67 8.5t77 29t75 65.5t45 108l133 684q4 15 2 23z" />
<glyph unicode="&#xd9;" d="M120.5 320q0.5 35 6.5 67l209 1073h199l-209 -1073q-6 -45 -4 -78t17 -56.5t32.5 -38.5t42 -23.5t44.5 -11.5t40 -3q33 0 69.5 8.5t81 29t79 65.5t46.5 108l209 1073h199l-209 -1075q-9 -48 -28 -96.5t-57.5 -105.5t-90 -100t-132.5 -72t-178 -29q-70 0 -128 15t-97 40.5 t-68 59.5t-44 71t-22.5 77t-7 75zM618 1944h211l103 -347h-176z" />
<glyph unicode="&#xda;" d="M120.5 320q0.5 35 6.5 67l209 1073h199l-209 -1073q-6 -45 -4 -78t17 -56.5t32.5 -38.5t42 -23.5t44.5 -11.5t40 -3q33 0 69.5 8.5t81 29t79 65.5t46.5 108l209 1073h199l-209 -1075q-9 -48 -28 -96.5t-57.5 -105.5t-90 -100t-132.5 -72t-178 -29q-70 0 -128 15t-97 40.5 t-68 59.5t-44 71t-22.5 77t-7 75zM625 1597l237 347h232l-273 -347h-196z" />
<glyph unicode="&#xdb;" d="M120.5 320q0.5 35 6.5 67l209 1073h199l-209 -1073q-6 -45 -4 -78t17 -56.5t32.5 -38.5t42 -23.5t44.5 -11.5t40 -3q33 0 69.5 8.5t81 29t79 65.5t46.5 108l209 1073h199l-209 -1075q-9 -48 -28 -96.5t-57.5 -105.5t-90 -100t-132.5 -72t-178 -29q-70 0 -128 15t-97 40.5 t-68 59.5t-44 71t-22.5 77t-7 75zM479 1597l289 330h160l159 -330h-172l-90 162l-155 -162h-191z" />
<glyph unicode="&#xdc;" d="M120.5 320q0.5 35 6.5 67l209 1073h199l-209 -1073q-6 -45 -4 -78t17 -56.5t32.5 -38.5t42 -23.5t44.5 -11.5t40 -3q33 0 69.5 8.5t81 29t79 65.5t46.5 108l209 1073h199l-209 -1075q-9 -48 -28 -96.5t-57.5 -105.5t-90 -100t-132.5 -72t-178 -29q-70 0 -128 15t-97 40.5 t-68 59.5t-44 71t-22.5 77t-7 75zM469 1597l47 244h211l-47 -244h-211zM891 1597l47 244h211l-47 -244h-211z" />
<glyph unicode="&#xdd;" horiz-adv-x="1056" d="M246 1460h207l135 -669l399 669h225l-565 -932l-102 -528h-199l103 532zM616 1597l238 347h231l-272 -347h-197z" />
<glyph unicode="&#xde;" horiz-adv-x="1163" d="M74 0l282 1460h199l-59 -309h258q186 0 283 -115t61 -299q-37 -192 -164 -306t-311 -114h-289l-62 -317h-198zM371 512h272q40 0 76.5 10.5t73.5 34t65.5 70t40.5 110.5q21 104 -17.5 161.5t-138.5 57.5h-286z" />
<glyph unicode="&#xdf;" horiz-adv-x="1130" d="M74 0l209 1075q10 50 27 96.5t53.5 103t85 97t127 68.5t174.5 28q80 0 141.5 -20t98 -54t60.5 -75t31.5 -87t7 -85.5t-7.5 -75.5q-13 -71 -66.5 -151t-115.5 -111q58 -30 90.5 -83t36 -108t-3.5 -112l-18 -105q-9 -46 -26 -93.5t-54 -104.5t-86 -100.5t-127.5 -73 t-173.5 -29.5h-156l37 197h131q35 0 68.5 7.5t73.5 27t71 63t43 106.5l18 99q40 209 -135 209h-100l37 196h80q69 0 117 43t63 121q13 53 4.5 90t-22 59t-40 34t-48 16t-46.5 4q-26 0 -51.5 -3.5t-59.5 -16.5t-60.5 -33.5t-49.5 -59.5t-33 -90l-207 -1069h-198z" />
<glyph unicode="&#xe0;" horiz-adv-x="1062" d="M85.5 211q-11.5 58 2.5 131q30 151 143.5 228t284.5 77h248l16 82q18 93 -24.5 131.5t-130.5 38.5q-39 0 -69.5 -5t-63 -19.5t-55.5 -44.5t-36 -76h-196q25 92 73.5 160.5t109.5 105t122 53.5t125 17q58 0 111.5 -12t103 -39t81.5 -69t46.5 -102t-2.5 -139l-141 -729 h-195l14 82q-44 -47 -113 -73.5t-143 -26.5q-53 0 -103 14t-94 42.5t-73.5 71.5t-41 101zM283 338q-18 -88 24.5 -128t126.5 -40q89 0 174 60t103 149l18 94h-221q-91 0 -152 -36t-73 -99zM518 1561h211l102 -347h-176z" />
<glyph unicode="&#xe1;" horiz-adv-x="1062" d="M85.5 211q-11.5 58 2.5 131q30 151 143.5 228t284.5 77h248l16 82q18 93 -24.5 131.5t-130.5 38.5q-39 0 -69.5 -5t-63 -19.5t-55.5 -44.5t-36 -76h-196q25 92 73.5 160.5t109.5 105t122 53.5t125 17q58 0 111.5 -12t103 -39t81.5 -69t46.5 -102t-2.5 -139l-141 -729 h-195l14 82q-44 -47 -113 -73.5t-143 -26.5q-53 0 -103 14t-94 42.5t-73.5 71.5t-41 101zM283 338q-18 -88 24.5 -128t126.5 -40q89 0 174 60t103 149l18 94h-221q-91 0 -152 -36t-73 -99zM524 1214l238 347h231l-272 -347h-197z" />
<glyph unicode="&#xe2;" horiz-adv-x="1062" d="M85.5 211q-11.5 58 2.5 131q30 151 143.5 228t284.5 77h248l16 82q18 93 -24.5 131.5t-130.5 38.5q-39 0 -69.5 -5t-63 -19.5t-55.5 -44.5t-36 -76h-196q25 92 73.5 160.5t109.5 105t122 53.5t125 17q58 0 111.5 -12t103 -39t81.5 -69t46.5 -102t-2.5 -139l-141 -729 h-195l14 82q-44 -47 -113 -73.5t-143 -26.5q-53 0 -103 14t-94 42.5t-73.5 71.5t-41 101zM283 338q-18 -88 24.5 -128t126.5 -40q89 0 174 60t103 149l18 94h-221q-91 0 -152 -36t-73 -99zM381 1221l289 329h159l160 -329h-172l-90 161l-156 -161h-190z" />
<glyph unicode="&#xe3;" horiz-adv-x="1062" d="M85.5 211q-11.5 58 2.5 131q30 151 143.5 228t284.5 77h248l16 82q18 93 -24.5 131.5t-130.5 38.5q-39 0 -69.5 -5t-63 -19.5t-55.5 -44.5t-36 -76h-196q25 92 73.5 160.5t109.5 105t122 53.5t125 17q58 0 111.5 -12t103 -39t81.5 -69t46.5 -102t-2.5 -139l-141 -729 h-195l14 82q-44 -47 -113 -73.5t-143 -26.5q-53 0 -103 14t-94 42.5t-73.5 71.5t-41 101zM283 338q-18 -88 24.5 -128t126.5 -40q89 0 174 60t103 149l18 94h-221q-91 0 -152 -36t-73 -99zM369 1348q93 78 144.5 102.5t94.5 24.5q42 0 115.5 -40t101.5 -40q41 0 125 69 l99 -118q-92 -75 -143 -100t-93 -25q-43 0 -117.5 41t-101.5 41q-40 0 -129 -72z" />
<glyph unicode="&#xe4;" horiz-adv-x="1062" d="M85.5 211q-11.5 58 2.5 131q30 151 143.5 228t284.5 77h248l16 82q18 93 -24.5 131.5t-130.5 38.5q-39 0 -69.5 -5t-63 -19.5t-55.5 -44.5t-36 -76h-196q25 92 73.5 160.5t109.5 105t122 53.5t125 17q58 0 111.5 -12t103 -39t81.5 -69t46.5 -102t-2.5 -139l-141 -729 h-195l14 82q-44 -47 -113 -73.5t-143 -26.5q-53 0 -103 14t-94 42.5t-73.5 71.5t-41 101zM283 338q-18 -88 24.5 -128t126.5 -40q89 0 174 60t103 149l18 94h-221q-91 0 -152 -36t-73 -99zM375 1245l47 244h211l-47 -244h-211zM797 1245l47 244h211l-47 -244h-211z" />
<glyph unicode="&#xe5;" horiz-adv-x="1062" d="M85.5 211q-11.5 58 2.5 131q30 151 143.5 228t284.5 77h248l16 82q18 93 -24.5 131.5t-130.5 38.5q-39 0 -69.5 -5t-63 -19.5t-55.5 -44.5t-36 -76h-196q25 92 73.5 160.5t109.5 105t122 53.5t125 17q58 0 111.5 -12t103 -39t81.5 -69t46.5 -102t-2.5 -139l-141 -729 h-195l14 82q-44 -47 -113 -73.5t-143 -26.5q-53 0 -103 14t-94 42.5t-73.5 71.5t-41 101zM283 338q-18 -88 24.5 -128t126.5 -40q89 0 174 60t103 149l18 94h-221q-91 0 -152 -36t-73 -99zM481 1372q18 95 90.5 159t176.5 64q96 0 155.5 -72t40.5 -167q-18 -95 -89.5 -159 t-174.5 -64q-92 0 -154.5 72.5t-44.5 166.5zM614 1364q-8 -40 15.5 -70t62.5 -30q47 0 79 29t40 71q8 40 -15.5 70t-62.5 30q-47 0 -79 -29t-40 -71z" />
<glyph unicode="&#xe6;" horiz-adv-x="1660" d="M88 346q30 150 145 225.5t287 75.5h246l16 84q33 168 -147 168q-47 0 -88.5 -10.5t-84 -44.5t-61.5 -90h-198q26 92 77 160t114 105t126.5 54t128.5 17q89 0 161.5 -33.5t111.5 -95.5q58 56 145.5 92.5t175.5 36.5q186 0 278.5 -106t57.5 -286l-45 -231h-608l-19 -92 q-40 -203 158 -203q178 0 246 180h196q-55 -174 -174 -272t-282 -98q-91 0 -176.5 42.5t-118.5 108.5q-144 -151 -357 -151q-67 0 -128 23t-109 66.5t-69.5 115t-4.5 159.5zM285 338q-19 -86 24.5 -127t126.5 -41q89 0 174 60t103 149l18 94h-223q-90 0 -149.5 -36.5 t-73.5 -98.5zM963 655h413l8 43q6 32 7.5 56t-4.5 53t-22.5 47.5t-50.5 31.5t-85 13q-98 0 -168 -50.5t-88 -139.5z" />
<glyph unicode="&#xe7;" horiz-adv-x="1042" d="M106 -434l271 346h192l-241 -346h-222zM125 375l63 323q34 179 161 285.5t308 106.5q169 0 264.5 -100t82.5 -271h-199q0 38 -6 67t-22 56t-49 42t-81 15q-101 0 -173.5 -53.5t-90.5 -147.5l-64 -323q-40 -205 162 -205q87 0 153 48.5t97 133.5h201 q-56 -175 -177.5 -273.5t-285.5 -98.5q-187 0 -283 107.5t-61 287.5z" />
<glyph unicode="&#xe8;" horiz-adv-x="1075" d="M125 375l63 323q34 180 160.5 286t315.5 106q182 0 278.5 -107t61.5 -285l-46 -231h-620l-19 -92q-6 -30 -6.5 -57t8 -55t27 -48t53.5 -32.5t84 -12.5q87 0 152 48.5t96 133.5h199q-56 -175 -177.5 -273.5t-289.5 -98.5q-183 0 -279 108t-61 287zM375 655h426l8 43 q5 31 6 56t-6.5 53.5t-25.5 47.5t-54 31.5t-88 12.5q-97 0 -168.5 -54t-89.5 -147zM518 1561h211l102 -347h-176z" />
<glyph unicode="&#xe9;" horiz-adv-x="1075" d="M125 375l63 323q34 180 160.5 286t315.5 106q182 0 278.5 -107t61.5 -285l-46 -231h-620l-19 -92q-6 -30 -6.5 -57t8 -55t27 -48t53.5 -32.5t84 -12.5q87 0 152 48.5t96 133.5h199q-56 -175 -177.5 -273.5t-289.5 -98.5q-183 0 -279 108t-61 287zM375 655h426l8 43 q5 31 6 56t-6.5 53.5t-25.5 47.5t-54 31.5t-88 12.5q-97 0 -168.5 -54t-89.5 -147zM524 1214l238 347h231l-272 -347h-197z" />
<glyph unicode="&#xea;" horiz-adv-x="1075" d="M125 375l63 323q34 180 160.5 286t315.5 106q182 0 278.5 -107t61.5 -285l-46 -231h-620l-19 -92q-6 -30 -6.5 -57t8 -55t27 -48t53.5 -32.5t84 -12.5q87 0 152 48.5t96 133.5h199q-56 -175 -177.5 -273.5t-289.5 -98.5q-183 0 -279 108t-61 287zM375 655h426l8 43 q5 31 6 56t-6.5 53.5t-25.5 47.5t-54 31.5t-88 12.5q-97 0 -168.5 -54t-89.5 -147zM387 1221l289 329h160l159 -329h-172l-90 161l-155 -161h-191z" />
<glyph unicode="&#xeb;" horiz-adv-x="1075" d="M125 375l63 323q34 180 160.5 286t315.5 106q182 0 278.5 -107t61.5 -285l-46 -231h-620l-19 -92q-6 -30 -6.5 -57t8 -55t27 -48t53.5 -32.5t84 -12.5q87 0 152 48.5t96 133.5h199q-56 -175 -177.5 -273.5t-289.5 -98.5q-183 0 -279 108t-61 287zM375 655h426l8 43 q5 31 6 56t-6.5 53.5t-25.5 47.5t-54 31.5t-88 12.5q-97 0 -168.5 -54t-89.5 -147zM381 1245l47 244h211l-47 -244h-211zM803 1245l47 244h211l-47 -244h-211z" />
<glyph unicode="&#xec;" horiz-adv-x="503" d="M74 0l209 1075h192l-209 -1075h-192zM174 1561h211l102 -347h-176z" />
<glyph unicode="&#xed;" horiz-adv-x="503" d="M74 0l209 1075h192l-209 -1075h-192zM307 1214l238 347h231l-272 -347h-197z" />
<glyph unicode="&#xee;" horiz-adv-x="503" d="M74 0l209 1075h192l-209 -1075h-192zM102 1221l289 329h160l160 -329h-172l-90 161l-156 -161h-191z" />
<glyph unicode="&#xef;" horiz-adv-x="503" d="M74 0l209 1075h192l-209 -1075h-192zM96 1245l47 244h211l-47 -244h-211zM518 1245l47 244h211l-47 -244h-211z" />
<glyph unicode="&#xf0;" horiz-adv-x="1157" d="M124 308.5q2 33.5 5 60.5l37 188q8 43 26 87.5t54.5 95.5t85.5 89.5t126 64.5t169 26q62 0 125 -21t98 -53l43 225l4 31l-131 -111l-96 123l159 133q-53 27 -135 27l37 190q166 0 258 -82l182 152l99 -119l-195 -164q14 -37 16.5 -95.5t-4.5 -90.5l-135 -700 q-9 -43 -26.5 -89t-55 -100.5t-86.5 -96t-127 -69.5t-170 -28q-68 0 -124.5 15t-94.5 40t-67.5 58t-44 69t-24.5 73.5t-8 71zM322 299.5q2 -31.5 17.5 -54.5t33 -37t41.5 -22t44 -11t40 -3q32 0 66.5 8t76 27.5t73.5 63t44 104.5l28 151q6 45 5 77t-16 54.5t-31 36.5 t-39.5 22t-42.5 10.5t-39 2.5q-34 0 -69 -7.5t-78 -26.5t-76.5 -63t-45.5 -106l-28 -151q-6 -44 -4 -75.5z" />
<glyph unicode="&#xf1;" horiz-adv-x="1103" d="M74 0l209 1075h194l-12 -61q109 76 233 76q186 0 267 -103.5t45 -288.5l-136 -698h-194l135 698q7 34 9.5 56.5t-1.5 52.5t-18.5 48t-47 31t-81.5 13q-95 0 -175.5 -56t-97.5 -141l-135 -702h-194zM389 1348q92 77 144.5 102t95.5 25q42 0 115.5 -40t101.5 -40 q41 0 125 69l98 -118q-92 -76 -142.5 -100.5t-92.5 -24.5q-43 0 -118 41t-102 41q-40 0 -129 -72z" />
<glyph unicode="&#xf2;" horiz-adv-x="1085" d="M125 375l63 323q34 179 162 285.5t309 106.5q186 0 283 -106.5t62 -285.5l-64 -323q-35 -179 -165 -287t-310 -108q-186 0 -280.5 107.5t-59.5 287.5zM313 304q4 -36 17.5 -66t52.5 -49t100 -19q99 0 171 56t91 149l64 323q36 201 -164 201q-101 0 -172 -53.5t-90 -147.5 l-64 -323q-10 -35 -6 -71zM518 1561h211l102 -347h-176z" />
<glyph unicode="&#xf3;" horiz-adv-x="1085" d="M125 375l63 323q34 179 162 285.5t309 106.5q186 0 283 -106.5t62 -285.5l-64 -323q-35 -179 -165 -287t-310 -108q-186 0 -280.5 107.5t-59.5 287.5zM313 304q4 -36 17.5 -66t52.5 -49t100 -19q99 0 171 56t91 149l64 323q36 201 -164 201q-101 0 -172 -53.5t-90 -147.5 l-64 -323q-10 -35 -6 -71zM524 1214l238 347h231l-272 -347h-197z" />
<glyph unicode="&#xf4;" horiz-adv-x="1085" d="M125 375l63 323q34 179 162 285.5t309 106.5q186 0 283 -106.5t62 -285.5l-64 -323q-35 -179 -165 -287t-310 -108q-186 0 -280.5 107.5t-59.5 287.5zM313 304q4 -36 17.5 -66t52.5 -49t100 -19q99 0 171 56t91 149l64 323q36 201 -164 201q-101 0 -172 -53.5t-90 -147.5 l-64 -323q-10 -35 -6 -71zM391 1221l289 329h160l159 -329h-172l-90 161l-155 -161h-191z" />
<glyph unicode="&#xf5;" horiz-adv-x="1085" d="M125 375l63 323q34 179 162 285.5t309 106.5q186 0 283 -106.5t62 -285.5l-64 -323q-35 -179 -165 -287t-310 -108q-186 0 -280.5 107.5t-59.5 287.5zM313 304q4 -36 17.5 -66t52.5 -49t100 -19q99 0 171 56t91 149l64 323q36 201 -164 201q-101 0 -172 -53.5t-90 -147.5 l-64 -323q-10 -35 -6 -71zM381 1348q92 77 144.5 102t95.5 25q42 0 115.5 -40t101.5 -40q41 0 125 69l98 -118q-92 -75 -143 -100t-93 -25q-43 0 -117.5 41t-101.5 41q-40 0 -129 -72z" />
<glyph unicode="&#xf6;" horiz-adv-x="1085" d="M125 375l63 323q34 179 162 285.5t309 106.5q186 0 283 -106.5t62 -285.5l-64 -323q-35 -179 -165 -287t-310 -108q-186 0 -280.5 107.5t-59.5 287.5zM313 304q4 -36 17.5 -66t52.5 -49t100 -19q99 0 171 56t91 149l64 323q36 201 -164 201q-101 0 -172 -53.5t-90 -147.5 l-64 -323q-10 -35 -6 -71zM385 1245l47 244h211l-47 -244h-211zM807 1245l47 244h211l-47 -244h-211z" />
<glyph unicode="&#xf7;" horiz-adv-x="1095" d="M135 350l35 187h782l-34 -187h-783zM326 0l49 262h264l-49 -262h-264zM444 618l52 263h264l-51 -263h-265z" />
<glyph unicode="&#xf8;" horiz-adv-x="1085" d="M70 -106l120 180q-102 109 -65 301l63 323q34 177 167.5 284.5t316.5 107.5q102 0 180 -35l86 127h113l-121 -181q111 -108 74 -303l-64 -323q-34 -177 -168 -286t-315 -109q-111 0 -189 38l-84 -124h-114zM322 268l411 611q-49 18 -98 18q-100 0 -165.5 -53t-84.5 -148 l-63 -323q-11 -67 0 -105zM387 193q47 -21 107 -21q98 0 164 53.5t85 147.5l64 323q11 66 -8 113z" />
<glyph unicode="&#xf9;" horiz-adv-x="1110" d="M137 375l137 700h195l-137 -700q-6 -32 -7.5 -57t4.5 -53.5t23 -48t51.5 -32t85.5 -12.5q90 0 164.5 54t91.5 139l140 710h194l-209 -1075h-194l12 70q-40 -36 -99 -62t-122 -26q-182 0 -273.5 107t-56.5 286zM522 1561h211l103 -347h-177z" />
<glyph unicode="&#xfa;" horiz-adv-x="1110" d="M137 375l137 700h195l-137 -700q-6 -32 -7.5 -57t4.5 -53.5t23 -48t51.5 -32t85.5 -12.5q90 0 164.5 54t91.5 139l140 710h194l-209 -1075h-194l12 70q-40 -36 -99 -62t-122 -26q-182 0 -273.5 107t-56.5 286zM549 1214l237 347h232l-273 -347h-196z" />
<glyph unicode="&#xfb;" horiz-adv-x="1110" d="M137 375l137 700h195l-137 -700q-6 -32 -7.5 -57t4.5 -53.5t23 -48t51.5 -32t85.5 -12.5q90 0 164.5 54t91.5 139l140 710h194l-209 -1075h-194l12 70q-40 -36 -99 -62t-122 -26q-182 0 -273.5 107t-56.5 286zM403 1221l289 329h160l160 -329h-172l-90 161l-156 -161 h-191z" />
<glyph unicode="&#xfc;" horiz-adv-x="1110" d="M137 375l137 700h195l-137 -700q-6 -32 -7.5 -57t4.5 -53.5t23 -48t51.5 -32t85.5 -12.5q90 0 164.5 54t91.5 139l140 710h194l-209 -1075h-194l12 70q-40 -36 -99 -62t-122 -26q-182 0 -273.5 107t-56.5 286zM397 1245l47 244h211l-47 -244h-211zM819 1245l47 244h211 l-47 -244h-211z" />
<glyph unicode="&#xfd;" horiz-adv-x="929" d="M-49 -463l37 193h116q49 0 80.5 19t55.5 69l82 182h-68l-92 1075h205l61 -839l385 839h209l-586 -1274q-32 -70 -63.5 -117t-63.5 -76.5t-74.5 -45t-85 -20.5t-106.5 -5h-92zM473 1214l238 347h231l-272 -347h-197z" />
<glyph unicode="&#xfe;" horiz-adv-x="1089" d="M-16 -463l364 1882h195l-80 -413q45 39 104 61.5t115 22.5q184 0 272.5 -105.5t53.5 -286.5l-64 -323q-34 -182 -154 -288.5t-305 -106.5q-56 0 -119 26.5t-85 63.5l-103 -533h-194zM333.5 318q-0.5 -27 8 -55t26.5 -48t52 -32.5t82 -12.5q96 0 162.5 55.5t85.5 149.5 l63 323q5 31 6.5 56t-5.5 53.5t-23.5 47.5t-50 31.5t-81.5 12.5q-106 0 -171.5 -52.5t-84.5 -148.5l-63 -323q-6 -30 -6.5 -57z" />
<glyph unicode="&#xff;" horiz-adv-x="929" d="M-49 -463l37 193h116q49 0 80.5 19t55.5 69l82 182h-68l-92 1075h205l61 -839l385 839h209l-586 -1274q-32 -70 -63.5 -117t-63.5 -76.5t-74.5 -45t-85 -20.5t-106.5 -5h-92zM309 1245l47 244h211l-47 -244h-211zM731 1245l47 244h211l-47 -244h-211z" />
<glyph unicode="&#x152;" horiz-adv-x="1687" d="M121.5 322.5q2.5 35.5 5.5 64.5l135 688q7 36 21.5 74.5t39.5 85t64.5 87t89 74.5t120.5 54t153 20q65 0 126.5 -17.5t96.5 -43.5l10 51h811l-39 -196h-612l-76 -398h567l-39 -196h-567l-92 -473h612l-37 -197h-811l7 35q-113 -53 -228 -53q-67 0 -123.5 15.5t-93.5 41.5 t-66.5 60.5t-43.5 72.5t-23.5 76.5t-7 74zM321 309q2 -33 17 -56.5t32 -38.5t40.5 -23.5t43.5 -11.5t40 -3q33 0 70 8t81 27.5t79 61.5t48 100l135 698q6 45 4.5 77t-17 55t-32.5 37t-41.5 22t-44.5 11t-41 3q-34 0 -70 -7.5t-80.5 -27.5t-79 -64t-46.5 -106l-133 -684 q-7 -45 -5 -78z" />
<glyph unicode="&#x153;" horiz-adv-x="1681" d="M125 375l63 323q34 176 159.5 284t307.5 108q90 0 165.5 -34.5t117.5 -92.5q140 127 324 127q185 0 278 -107.5t59 -284.5l-45 -231h-608l-20 -107q-35 -190 164 -190q83 0 144.5 48t94.5 134h199q-55 -174 -174 -273t-281 -99q-103 0 -178.5 32.5t-114.5 91.5 q-133 -124 -313 -124q-184 0 -280 109.5t-62 285.5zM314 321q-2 -28 7.5 -55t26 -48.5t51 -34.5t82.5 -13q96 0 164.5 53.5t85.5 143.5l68 344q25 188 -160 188q-99 0 -168 -53.5t-88 -147.5l-64 -323q-3 -26 -5 -54zM983 655h414l8 43q9 34 4.5 69.5t-18 65t-51 48 t-95.5 18.5q-98 0 -165.5 -50t-86.5 -140z" />
<glyph unicode="&#x178;" horiz-adv-x="1056" d="M246 1460h207l135 -669l399 669h225l-565 -932l-102 -528h-199l103 532zM438 1597l47 244h211l-47 -244h-211zM860 1597l47 244h211l-47 -244h-211z" />
<glyph unicode="&#x2c6;" horiz-adv-x="974" d="M336 1221l289 329h159l160 -329h-172l-90 161l-156 -161h-190z" />
<glyph unicode="&#x2dc;" horiz-adv-x="1015" d="M346 1348q92 77 144.5 102t95.5 25q42 0 115.5 -40t101.5 -40q41 0 125 69l98 -118q-92 -76 -142.5 -100.5t-92.5 -24.5q-43 0 -118 41t-102 41q-40 0 -129 -72z" />
<glyph unicode="&#x2000;" horiz-adv-x="986" />
<glyph unicode="&#x2001;" horiz-adv-x="1972" />
<glyph unicode="&#x2002;" horiz-adv-x="986" />
<glyph unicode="&#x2003;" horiz-adv-x="1972" />
<glyph unicode="&#x2004;" horiz-adv-x="657" />
<glyph unicode="&#x2005;" horiz-adv-x="493" />
<glyph unicode="&#x2006;" horiz-adv-x="328" />
<glyph unicode="&#x2007;" horiz-adv-x="328" />
<glyph unicode="&#x2008;" horiz-adv-x="246" />
<glyph unicode="&#x2009;" horiz-adv-x="394" />
<glyph unicode="&#x200a;" horiz-adv-x="109" />
<glyph unicode="&#x2010;" horiz-adv-x="940" d="M166 483l37 185h628l-36 -185h-629z" />
<glyph unicode="&#x2011;" horiz-adv-x="940" d="M166 483l37 185h628l-36 -185h-629z" />
<glyph unicode="&#x2012;" horiz-adv-x="940" d="M166 483l37 185h628l-36 -185h-629z" />
<glyph unicode="&#x2013;" horiz-adv-x="1185" d="M166 483l37 185h874l-37 -185h-874z" />
<glyph unicode="&#x2014;" horiz-adv-x="1665" d="M166 483l37 185h1353l-36 -185h-1354z" />
<glyph unicode="&#x2018;" horiz-adv-x="583" d="M215 1102l295 440h184l-260 -440h-219z" />
<glyph unicode="&#x2019;" horiz-adv-x="581" d="M236 1102l258 440h219l-297 -440h-180z" />
<glyph unicode="&#x201a;" horiz-adv-x="581" d="M-43 -236l258 441h219l-297 -441h-180z" />
<glyph unicode="&#x201c;" horiz-adv-x="923" d="M215 1102l295 440h184l-260 -440h-219zM559 1102l297 440h180l-258 -440h-219z" />
<glyph unicode="&#x201d;" horiz-adv-x="923" d="M236 1102l258 440h219l-297 -440h-180zM578 1102l260 440h219l-295 -440h-184z" />
<glyph unicode="&#x201e;" horiz-adv-x="923" d="M-45 -236l258 441h219l-297 -441h-180zM297 -236l260 441h219l-295 -441h-184z" />
<glyph unicode="&#x2022;" horiz-adv-x="788" d="M197 707q0 101 72 173t173 72t173.5 -72t72.5 -173t-72.5 -173.5t-173.5 -72.5t-173 72.5t-72 173.5z" />
<glyph unicode="&#x2026;" horiz-adv-x="1349" d="M66 0l49 254h235l-49 -254h-235zM477 0l49 254h232l-49 -254h-232zM887 0l49 254h235l-49 -254h-235z" />
<glyph unicode="&#x202f;" horiz-adv-x="394" />
<glyph unicode="&#x2039;" horiz-adv-x="632" d="M76 539l530 446l-53 -278l-225 -191l151 -188l-45 -234z" />
<glyph unicode="&#x203a;" horiz-adv-x="630" d="M72 98l53 279l227 188l-153 189l45 233l356 -446z" />
<glyph unicode="&#x205f;" horiz-adv-x="493" />
<glyph unicode="&#x20ac;" horiz-adv-x="1126" d="M100 500l37 186h162l18 98h-161l37 187h161l21 104q9 46 25.5 92t53.5 103t86 99.5t128.5 71.5t175.5 29q66 0 119 -16t88.5 -42t61.5 -62t39 -74.5t19.5 -81t5.5 -79t-6 -71.5h-196q35 232 -146 232q-34 0 -67.5 -7.5t-74.5 -27t-72.5 -63.5t-43.5 -107l-18 -100h371 l-37 -187h-371l-18 -98h370l-37 -186h-370l-23 -113q-7 -46 -6.5 -79t13.5 -56.5t28 -38t37 -23t40.5 -11.5t39.5 -3q24 0 50 5t59 20t61 39.5t53.5 67t38.5 98.5h197q-11 -46 -28 -90t-43.5 -94t-64.5 -91.5t-86.5 -75.5t-114.5 -53.5t-143 -19.5q-69 0 -124 15.5t-91 41 t-62 60.5t-38.5 71.5t-18 76.5t-3.5 73.5t8 64.5l22 115h-162z" />
<glyph unicode="&#x2122;" horiz-adv-x="1468" d="M315 1247l33 172h537l-33 -172h-182l-123 -629h-174l123 629h-181zM774 618l156 801h213l24 -268l121 268h217l-155 -801h-172l84 429l-99 -240h-129l-4 240l-84 -429h-172z" />
<glyph unicode="&#x25fc;" horiz-adv-x="1075" d="M0 0v1075h1075v-1075h-1075z" />
<glyph unicode="&#xfb01;" horiz-adv-x="1230" d="M121 885l39 190h176l12 70q29 150 115.5 232.5t234.5 82.5h127l-37 -190h-126q-39 0 -71.5 -24.5t-43.5 -78.5l-17 -92h658l-209 -1075h-195l170 885h-462l-170 -885h-195l170 885h-176zM1006 1217l49 249h219l-49 -249h-219z" />
<glyph unicode="&#xfb02;" horiz-adv-x="1222" d="M121 885l39 190h176l12 70q29 150 116.5 232.5t235.5 82.5h125l-37 -190h-129q-38 0 -70 -27.5t-42 -81.5l-17 -86h441l73 385h195l-229 -1179q-16 -91 65 -91h74l-37 -190h-72q-57 0 -102.5 16t-79 51t-44 89.5t2.5 132.5l115 596h-440l-170 -885h-195l170 885h-176z " />
</font>
</defs>
</svg>
